<svg xmlns="http://www.w3.org/2000/svg" width="266" height="64" viewBox="0 0 266 64" preserveAspectRatio="xMinYMid" aria-hidden="true" focusable="false"><path d="M52.46,2.11a1.26,1.26,0,0,1,1.27,1.25V9.59H2.81V3.36A1.26,1.26,0,0,1,4.09,2.11H52.46M40.74,25.48a2.08,2.08,0,0,1-2,2.08l-2.18,8.5a.53.53,0,0,1-.51.39H20.39a.53.53,0,0,1-.51-.39l-2.15-8.5A2.1,2.1,0,1,1,19,27.14l3.43,3.34,4.75-5.21a2.61,2.61,0,0,1,1-5,2.61,2.61,0,0,1,1,5L34,30.48l3.45-3.32a2.08,2.08,0,1,1,3.31-1.68Zm-2.1,14.11a2,2,0,0,1-2.07,2.09H19.86a2.09,2.09,0,0,1,0-4.18H36.57A2,2,0,0,1,38.64,39.59ZM2.81,21.45A45.28,45.28,0,0,0,27.68,61.74a1.26,1.26,0,0,0,1.18,0A45.28,45.28,0,0,0,53.73,21.45V12.08H2.81ZM162.88,43.9h3.34v2.22h-3.34v4.54h4.21v2.22h-6.64V37.37h6.64v2.21h-4.21Zm-11-6.53h7.52v2.21h-2.54v13.3H154.4V39.58h-2.54Zm-3.5,0h2.44V52.88h-2.44Zm-5-.18c2.37,0,3.59,1.42,3.59,3.9v.49h-2.31v-.65c0-1.1-.44-1.52-1.21-1.52s-1.22.42-1.22,1.52c0,3.19,4.76,3.79,4.76,8.22,0,2.48-1.24,3.9-3.63,3.9s-3.63-1.42-3.63-3.9V48.2H142v1.11c0,1.11.49,1.5,1.26,1.5s1.26-.39,1.26-1.5c0-3.19-4.76-3.79-4.76-8.22C139.77,38.61,141,37.19,143.36,37.19Zm-7.42,4V42c0,1.24-.55,1.64-1.46,1.64h-.95v-4.1h1.18C135.57,39.58,135.94,40.07,135.94,41.18Zm.25,6.6v1.35c0,1.15-.44,1.53-1.26,1.53h-1.4V45.9h1.09C135.72,45.9,136.19,46.34,136.19,47.78ZM131.1,37.37V52.88h3.83c2.43,0,3.69-1.29,3.69-3.68V47.93c0-1.63-.51-2.81-1.81-3.32,1.08-.51,1.57-1.53,1.57-3.12v-.56c0-2.39-1.09-3.56-3.61-3.56Zm-5.71,6.53h3.34v2.22h-3.34v4.54h4.2v2.22H123V37.37h6.64v2.21h-4.2Zm-9.5.71L115,52.88h-3.35l-1.72-15.51h2.37l1.3,12.23,1.17-12.23h2.35l1.22,12.32,1.26-12.32h2.12L120,52.88h-3.23Zm-14.1,8.44c2.39,0,3.7-1.42,3.7-3.9V41.09c0-2.48-1.31-3.9-3.7-3.9s-3.69,1.42-3.69,3.9v8.06C98.1,51.63,99.4,53.05,101.79,53.05Zm0-13.64c.78,0,1.26.42,1.26,1.52v8.38c0,1.11-.48,1.53-1.26,1.53s-1.26-.42-1.26-1.53V40.93C100.53,39.83,101,39.41,101.79,39.41Zm-10.31,9,1.66-11h3.38V52.88h-2.3V41.75L92.54,52.88h-2.3l-1.82-11v11H86.3V37.37h3.38ZM80.61,43.9H84v2.22H80.61v4.54h4.2v2.22H78.17V37.37h6.64v2.21h-4.2Zm-6.42-2.81v8.06c0,1.11-.46,1.51-1.24,1.51H71.58V39.58H73C73.73,39.58,74.19,40,74.19,41.09ZM73,52.88c2.44,0,3.63-1.36,3.63-3.84V41.2c0-2.48-1.19-3.83-3.63-3.83H69.14V52.88ZM252.45,3.33h4.06V25.49h6.68v3.69H252.45Zm-7,0h4.06V29.18h-4.06ZM243,19.54V23c0,4.14-2.06,6.5-6.05,6.5s-6-2.36-6-6.5V9.53c0-4.13,2.07-6.49,6-6.49S243,5.4,243,9.53v2.52h-3.84V9.28c0-1.85-.81-2.55-2.1-2.55s-2.1.7-2.1,2.55v14c0,1.85.81,2.51,2.1,2.51s2.1-.66,2.1-2.51V19.54Zm-23.9-9.08V29.18h-3.66V3.33h5.1l4.16,15.47V3.33h3.62V29.18h-4.17ZM204.64,3.33V23.27c0,1.85.81,2.51,2.1,2.51s2.11-.66,2.11-2.51V3.33h3.83V23c0,4.14-2.06,6.5-6.05,6.5s-6-2.36-6-6.5V3.33ZM192,29.47c4,0,6.16-2.36,6.16-6.5V9.53C198.15,5.4,196,3,192,3s-6.16,2.36-6.16,6.49V23C185.83,27.11,188,29.47,192,29.47Zm0-22.74c1.29,0,2.1.7,2.1,2.55v14c0,1.85-.81,2.55-2.1,2.55s-2.1-.7-2.1-2.55V9.28C189.89,7.43,190.7,6.73,192,6.73Zm-8.3,12.81V23c0,4.14-2.07,6.5-6.05,6.5s-6-2.36-6-6.5V9.53c0-4.13,2.06-6.49,6-6.49s6.05,2.36,6.05,6.49v2.52h-3.84V9.28c0-1.85-.81-2.55-2.1-2.55s-2.1.7-2.1,2.55v14c0,1.85.81,2.51,2.1,2.51s2.1-.66,2.1-2.51V19.54ZM151.89,3.33h12.54V7h-4.24V29.18h-4.06V7h-4.24ZM150.6,19.54V23c0,4.14-2.07,6.5-6,6.5s-6.05-2.36-6.05-6.5V9.53c0-4.13,2.06-6.49,6.05-6.49s6,2.36,6,6.49v2.52h-3.84V9.28c0-1.85-.81-2.55-2.1-2.55s-2.1.7-2.1,2.55v14c0,1.85.81,2.51,2.1,2.51s2.1-.66,2.1-2.51V19.54Zm-21.29-5.32h5.57v3.7h-5.57v7.57h7v3.69H125.25V3.33h11.07V7h-7Zm-12.69.59h5.24v3.7h-5.24V29.18h-4.06V3.33H123.3V7h-6.68ZM105.81,9.68v2.55c0,2.07-.92,2.73-2.43,2.73h-1.59V7h2C105.19,7,105.81,7.84,105.81,9.68ZM109.91,26v-4c0-2.69-.67-4.65-2.7-5.5,1.81-.85,2.66-2.58,2.66-5.24v-2c0-4-1.81-5.95-6-5.95H97.73V29.18h4.06V18.65h1.4c1.85,0,2.66.89,2.66,3.29V26a8,8,0,0,0,.37,3.18h4.13A7.57,7.57,0,0,1,109.91,26ZM88.22,14.22h5.57v3.7H88.22v7.57h7v3.69H84.16V3.33H95.22V7h-7ZM78,9.46v3.88c0,1.84-.7,2.43-2,2.43H74.12V7H76C77.33,7,78,7.61,78,9.46Zm-8-6.13V29.18h4.05V19.47H76c4.06,0,6-2.26,6-6.39V9.72c0-4.14-2-6.39-6-6.39Z" fill-rule="evenodd" fill="#fff"/></svg>
