<svg xmlns="http://www.w3.org/2000/svg" width="661" height="661" viewBox="0 0 661 661"><title>light-background</title><path d="M151,508.52,0,358a329.89,329.89,0,0,0,13.06,68L123.43,536Zm55-55L7.39,255A330.68,330.68,0,0,0,0,302.65L178.46,481Zm55-55L37.13,175A329.53,329.53,0,0,0,20,212.9L233.45,426Zm-165,166A330.5,330.5,0,0,0,234,647L123.58,537Zm55-55.88L301.83,659.8a332.13,332.13,0,0,0,55.17.1L178.54,481Zm55-54.08L404.69,653A331.81,331.81,0,0,0,447,640.23L233.55,427Zm55-55L484.8,623A329.63,329.63,0,0,0,519,602.14L288.54,372Zm55-56L82.31,110A329.55,329.55,0,0,0,58,140.75L288.46,371Zm55-55L140.75,58A330.74,330.74,0,0,0,110,82.3L343.48,316Zm-55,55.06L549.48,577q7.23-6.42,14.16-13.35T577,549.49L343.52,316Zm56-55L602.14,519A327.78,327.78,0,0,0,623,484.81L399.5,261Zm54-55.09L212.91,20A330.45,330.45,0,0,0,175,37.13L398.5,261Zm1,.1L640.22,447A331.22,331.22,0,0,0,653,404.69L454.52,206Zm54-55.09L302.65,0A330.68,330.68,0,0,0,255,7.39L453.48,206Zm55-55L426,13.07A329.5,329.5,0,0,0,358,0L508.52,151Zm-55,55.11L659.9,357a332.13,332.13,0,0,0-.1-55.17L508.6,151ZM647,234A330.44,330.44,0,0,0,564.48,96L537,123.58Z" fill="#f7f7f7" fill-rule="evenodd"/></svg>