<svg xmlns="http://www.w3.org/2000/svg" width="200" height="86" viewBox="0 0 200 86" preserveAspectRatio="xMinYMid" aria-hidden="true" focusable="false"><path d="M34.31,43.66a1.89,1.89,0,0,0,0-2.21l.56-.6-.93-.19-.18-.94-1.14.95-1.17-1-.18.94-.93.19.54.62a2,2,0,0,0-.34,1.18A2,2,0,0,0,31,44s-.75.24-1.93-.9A7.3,7.3,0,0,1,27.62,41V43.1A6.5,6.5,0,0,0,28.9,45a4.79,4.79,0,0,0,2,1,3.89,3.89,0,0,1-1,1.92,5.8,5.8,0,0,1-1.66,1.63h2l2.54-2.64h3l1.78.84a9.08,9.08,0,0,1-.73.9,12.5,12.5,0,0,1-1.05.9h1.81l2.14-2.42A1.91,1.91,0,0,1,41,48c.19.41-.94,1.53-.9,1.53h2.12V46.84l-2.42-1.31V43.68a2.05,2.05,0,0,0-.39-1.27c-.57-.76-2.1-.32-2.42-.59s-.2-1.09-.2-1.09A1,1,0,0,0,36,41.8a1,1,0,0,0,.65.86c.37.2,1.21,0,1.6.4a.59.59,0,0,1,.2.6H34.31Zm.09-13.42a1.62,1.62,0,0,0,0-1.88l.48-.51L34,27.69l-.15-.8-1,.81-1-.82-.15.8-.79.17.46.53a1.7,1.7,0,0,0-.29,1,1.74,1.74,0,0,0,.45,1.16s-.64.21-1.64-.77A6.16,6.16,0,0,1,28.71,28v1.75a5.48,5.48,0,0,0,1.1,1.63,4.05,4.05,0,0,0,1.66.82,3.33,3.33,0,0,1-.83,1.63,5,5,0,0,1-1.42,1.39h1.69L33.08,33h2.59l1.51.71a8.18,8.18,0,0,1-.62.77,11.49,11.49,0,0,1-.89.77h1.54L39,33.19a1.63,1.63,0,0,1,1.09.75c.16.35-.8,1.3-.77,1.3h1.81V33L39.1,31.84V30.26a1.75,1.75,0,0,0-.33-1.08c-.49-.65-1.78-.27-2.06-.5s-.16-.93-.16-.93a.87.87,0,0,0-.68.92.83.83,0,0,0,.55.73c.31.17,1,0,1.36.34a.49.49,0,0,1,.17.51Zm-.34,27.57a1.62,1.62,0,0,0,0-1.88l.48-.51-.79-.17-.15-.8-1,.81-1-.82-.15.8-.79.17.46.53a1.7,1.7,0,0,0-.29,1,1.74,1.74,0,0,0,.45,1.16s-.64.21-1.64-.77a6.17,6.17,0,0,1-1.24-1.75v1.75A5.48,5.48,0,0,0,29.47,59a4.05,4.05,0,0,0,1.66.82,3.33,3.33,0,0,1-.83,1.63,5,5,0,0,1-1.42,1.39h1.69l2.17-2.25h2.59l1.51.71a8.18,8.18,0,0,1-.62.77,11.49,11.49,0,0,1-.89.77h1.54l1.82-2.06a1.63,1.63,0,0,1,1.09.75c.16.35-.8,1.3-.77,1.3h1.81V60.52L38.75,59.4V57.83a1.75,1.75,0,0,0-.33-1.08c-.49-.65-1.78-.27-2.05-.5s-.16-.93-.16-.93a.87.87,0,0,0-.68.92.83.83,0,0,0,.55.73c.31.17,1,0,1.36.34a.49.49,0,0,1,.17.51H34.06ZM19.41,43.27a1.62,1.62,0,0,0,.1-1.88l.51-.47-.78-.22-.1-.81-1,.74-.93-.89-.21.79-.8.11.42.56a1.71,1.71,0,0,0-.36,1,1.73,1.73,0,0,0,.37,1.19s-.65.16-1.58-.88a6.12,6.12,0,0,1-1.12-1.83l-.12,1.74a5.41,5.41,0,0,0,1,1.7,4,4,0,0,0,1.6.94,3.35,3.35,0,0,1-.95,1.57,4.88,4.88,0,0,1-1.51,1.28l1.68.13,2.32-2.09,2.58.18,1.46.81a8.45,8.45,0,0,1-.67.72,11.14,11.14,0,0,1-.94.7l1.53.11,2-1.93a1.64,1.64,0,0,1,1,.82c.14.36-.89,1.24-.85,1.24l1.8.13.16-2.27-2-1.26.11-1.57a1.75,1.75,0,0,0-.25-1.1c-.44-.68-1.76-.4-2-.64s-.1-.94-.1-.94a.87.87,0,0,0-.74.87.83.83,0,0,0,.5.77c.3.19,1,.07,1.33.43a.49.49,0,0,1,.14.52Zm30.11.41a1.61,1.61,0,0,0-.17-1.87l.44-.54-.8-.11-.21-.79-.91.87-1.05-.75-.1.81-.78.22.49.5a1.79,1.79,0,0,0,.31,2.15s-.63.25-1.69-.65a6.26,6.26,0,0,1-1.37-1.66l.12,1.74A5.45,5.45,0,0,0,45,45.14a4.09,4.09,0,0,0,1.71.71A3.29,3.29,0,0,1,46,47.53,5,5,0,0,1,44.69,49l1.68-.1,2-2.39L51,46.34l1.56.6a9.34,9.34,0,0,1-.56.81,11.45,11.45,0,0,1-.84.82l1.53-.1,1.67-2.18a1.65,1.65,0,0,1,1.14.67c.19.34-.71,1.35-.67,1.35l1.8-.13-.16-2.27-2.13-1-.11-1.57a1.76,1.76,0,0,0-.4-1.06c-.53-.61-1.8-.15-2.09-.36s-.23-.91-.23-.91a.86.86,0,0,0-.61,1,.83.83,0,0,0,.6.69c.32.15,1-.07,1.38.24a.5.5,0,0,1,.21.5Zm-23,24.44V51.76c-7.59-.41-13.73-1.23-14.81-1.38C12.71,58.49,20.24,64.47,26.52,68.11Zm31-17.64c-.81.1-7.14.9-15,1.3V68.21C48.89,64.59,56.53,58.61,57.57,50.48Zm-15-28.3v15.7a97.79,97.79,0,0,0,11.2-1.31c-.64-1.16-1.25-2.25-1.74-3.31a11.44,11.44,0,0,1-1.24-4.8,15,15,0,0,1,2.1-7.1C50.47,21.65,47,22,42.6,22.18Zm-26.22-.82a15,15,0,0,1,2.1,7.1,11.44,11.44,0,0,1-1.24,4.8c-.5,1.08-1.12,2.2-1.78,3.39a95.71,95.71,0,0,0,11.07,1.25V22.17C22.23,22,18.8,21.65,16.38,21.36Zm42.32.47a4.65,4.65,0,0,1-3,1.12,4.8,4.8,0,0,1-1.49-.24,12.72,12.72,0,0,0-1.56,5.67c0,5.32,6.87,10.55,6.87,20.13,0,7.25-4.68,13-10,17.15l2,2.56.05-3.11L54,68.31c1.37-.63,2.2-.84,3.06-1.24,1.18-.54,1.23-.87,1.23-.92a2,2,0,1,1,2.05-2,5.3,5.3,0,0,1-1.22,3.29,16.38,16.38,0,0,1-5.5,4.73l3.4.06a21.33,21.33,0,0,1,1.86,2.31A14.26,14.26,0,0,1,61,79.06a2.85,2.85,0,0,1,.52,0,2.64,2.64,0,0,1,1.66.58,1.41,1.41,0,0,0-.34,0,1.34,1.34,0,1,0,1.3,1.69,2.45,2.45,0,0,1,0,.41,2.65,2.65,0,0,1-5.31,0,2.68,2.68,0,0,1,.15-.88,13.16,13.16,0,0,1-3.73-3.17,22.48,22.48,0,0,1-3-4.73c-1.44.68-2.28.91-3.17,1.32-1.31.6-1.22.86-1.22.86a2,2,0,1,1-.07,4,2,2,0,0,1-2-2A5.29,5.29,0,0,1,47,73.79a16.85,16.85,0,0,1,3.44-3.42l-2.58-3.49a59.08,59.08,0,0,1-13.25,7,58.15,58.15,0,0,1-15-8.3l-4,5a.73.73,0,0,1-.16,1.45l-.35-.1a10.47,10.47,0,0,1-1.7-1.09,10,10,0,0,1-1.48-1.43L11.78,69a.73.73,0,0,1,.73-.73.74.74,0,0,1,.66.4l4.11-5.14c-4.2-3.93-7.52-8.95-7.52-15,0-9.58,6.87-14.81,6.87-20.13a14.1,14.1,0,0,0-2.39-7.12L8.38,13.34,3.1,3.9l7.52,7.78,6,7.81a150.77,150.77,0,0,0,18,1,154.63,154.63,0,0,0,16.6-.82A4.49,4.49,0,0,1,51,18.35a4.61,4.61,0,0,1,.68-2.47,11.71,11.71,0,0,1,1.75-2.55,28.85,28.85,0,0,1,4,2.71l.89.72a19.44,19.44,0,0,1-1.32,1.72A9.15,9.15,0,0,1,55.57,20a.65.65,0,0,0,.1.92c.3.23.49.12.78,0a4.87,4.87,0,0,0,1.66-1.11A12.62,12.62,0,0,0,59.78,18c.58.55,1,1.06,1.28,1.36A10.91,10.91,0,0,1,58.7,21.83ZM61.59,11a3.26,3.26,0,0,1,4.1-.06,3.21,3.21,0,0,1-1.33,5.65l-.23-.18c-.09-.11-.4-.48-.93-1,.17-.73.61-2.54.6-2.57s-1.49.62-2.3,1c-.4-.35-.85-.72-1.34-1.12s-1-.74-1.4-1c.2-.82.55-2.31.54-2.34s-1.79.75-2.5,1.06c-.66-.39-1.08-.59-1.17-.63l-.19-.15A3.21,3.21,0,0,1,60.67,7,3.27,3.27,0,0,1,61.59,11ZM67.4,9.08l-2.74.3a2.08,2.08,0,0,1-1.6-.3,2.05,2.05,0,0,1-.64-1.48l-.31-2.7,1.52,1.2,2.57-.94-.33,2.71ZM62,18.44A28.11,28.11,0,0,0,58.3,15,26.23,26.23,0,0,0,54,12.18.87.87,0,0,1,53.82,11a.88.88,0,0,1,1.06-.25,24.36,24.36,0,0,1,4.5,2.93,25.45,25.45,0,0,1,4,3.75.85.85,0,0,1,0,1,.8.8,0,0,1-1.16.13ZM7.15,72.88s.75-.28,2.29-1a10.88,10.88,0,0,0,1.95-1.11s.12.15.29.33a10,10,0,0,0,.93.86,10.58,10.58,0,0,0,1,.75l.37.21a10.39,10.39,0,0,0-.63,2c-.37,1.64-.47,2.44-.47,2.44a19.85,19.85,0,0,1-3-1.94A18.64,18.64,0,0,1,7.15,72.88ZM5.7,79.1a3.91,3.91,0,0,1,0-4.85,3.58,3.58,0,0,1,.44-.46A16.56,16.56,0,0,0,9,76.5a19.63,19.63,0,0,0,3.34,2.1,2.74,2.74,0,0,1-.36.53,4,4,0,0,1-4.38,1.27,2.51,2.51,0,0,0-.33,0A1.19,1.19,0,0,0,6,81.56a1.17,1.17,0,0,0,1.17,1.17l.2,0a2.38,2.38,0,1,1-2-3.59l.35,0ZM31.12,3.3a13.4,13.4,0,0,1,12.61,0Zm-10,11.87s2-.32,5.27-1l1.24-2.92s-1.35.13-4.9,1.9a23.52,23.52,0,0,0-4.45,2.59,101,101,0,0,0,15,1.36A121,121,0,0,0,48.36,16a25.65,25.65,0,0,0,.18-4.1,22.66,22.66,0,0,0-.64-4.29,16.27,16.27,0,0,1-.27,3.63,13,13,0,0,1-1,3A54,54,0,0,1,33.29,15.9,61.17,61.17,0,0,1,21.11,15.16Zm7.59-1.49c2.05-.46,4.4-1,7-1.78,8.27-2.36,11.82-5.58,11.82-5.58H44.32V4.1a20.61,20.61,0,0,1-6.89,1.15,24.79,24.79,0,0,1-6.84-1L29.52,6.72a4.49,4.49,0,0,0,1.76.72,11.76,11.76,0,0,0,2.12.4,8.34,8.34,0,0,1-1.62,2.8A41,41,0,0,1,28.71,13.67Zm3,.76s1.29.12,1.91.15a8.49,8.49,0,0,0,1.48-.09,2.48,2.48,0,0,0,.37-.58c.12-.28.26-.71.26-.71s-1.13.41-1.85.63S31.68,14.43,31.68,14.43Zm5.23-.91s1.32.13,1.95.13a11,11,0,0,0,1.51-.14,4,4,0,0,0,.36-.72,4,4,0,0,0,.22-.83s-1.13.54-1.87.79S36.91,13.52,36.91,13.52ZM42,12.28s1.46.11,2.1.06a5,5,0,0,0,1.47-.29,3.8,3.8,0,0,0,.31-.8,5.15,5.15,0,0,0,.18-1s-1.2.75-2,1.13S42,12.28,42,12.28ZM88.78,28,82,37.68,75.2,28H65.93L78.1,44.45V58.94h7.73V44.45L98,28Zm96.14,0L175.1,42V28h-7.74v31h7.74V44.4l12.26,14.54H197L183.33,42.5l10-14.53ZM124.1,43.68c0,5.45-4.07,9.4-9.68,9.4-5.84,0-9.77-3.81-9.77-9.44,0-5.82,3.8-9.49,9.68-9.49S124.15,37.86,124.1,43.68Zm-9.73-16.12c-10,0-17.69,6.95-17.69,15.94s7.69,15.85,17.55,15.85c10.09,0,17.83-6.86,17.83-15.85S124.33,27.56,114.37,27.56Zm29.49,6h3.89c2.85,0,4.3,1.18,4.3,3.54a3.33,3.33,0,0,1-3.44,3.45l-.95,0-.59,0h-3.21V33.6Zm-7.78,25.34h7.78V46.31H145a6.75,6.75,0,0,1,2.22.18c1.45.41,2.94,2.14,4.12,4.81l1.17,2.64.91,2,.59,1.41.59,1.27.18.32h8.46l-.22-.5-.82-1.73-.95-2.09-.82-1.73-1.22-2.64c-1.45-3.22-2.8-5-4.43-5.82a10.12,10.12,0,0,0,2.67-1.63,8,8,0,0,0,2.63-6,9,9,0,0,0-4-7.36c-2-1.23-3.62-1.54-8.1-1.54H136.08v31Zm-35.52-47a3.7,3.7,0,0,0-3.84,3.67,3.63,3.63,0,0,0,3.81,3.63,5.18,5.18,0,0,0,2.58-.63V17.51a4.63,4.63,0,0,1-2.51.79,2.65,2.65,0,0,1-2.82-2.68,2.69,2.69,0,0,1,2.83-2.7,4.77,4.77,0,0,1,2.43.71v-1.1A6,6,0,0,0,100.57,11.94Zm9.28.09h1v7.12h-1Zm7.41,0v.9h2.43v6.22h1V12.93h2.47V12Zm16.6,0-1.92,2.45L130,12h-1.23l2.62,3.35v3.77h1V15.38L135.09,12Zm29.82,0v7.12h1V15.84h2.76v-.92H164.7V13h2.76V12Zm-10.52.86a2.7,2.7,0,1,1-2.79,2.71A2.67,2.67,0,0,1,153.16,12.9Zm-3.84,2.71a3.6,3.6,0,0,0,3.74,3.63,3.66,3.66,0,1,0,0-7.3A3.61,3.61,0,0,0,149.32,15.61ZM99.41,67.77a3.7,3.7,0,0,0-3.84,3.67,3.63,3.63,0,0,0,3.81,3.63,5.18,5.18,0,0,0,2.58-.63V73.34a4.63,4.63,0,0,1-2.51.79,2.65,2.65,0,0,1-2.82-2.68,2.69,2.69,0,0,1,2.83-2.7,4.77,4.77,0,0,1,2.43.71v-1.1A6,6,0,0,0,99.41,67.77Zm26.07.09v4a5.93,5.93,0,0,1-.07,1,1.83,1.83,0,0,1-2,1.3,2.11,2.11,0,0,1-1.58-.59c-.35-.36-.45-.73-.45-1.67v-4h-1v4a3.78,3.78,0,0,0,.17,1.43,2.81,2.81,0,0,0,2.89,1.75,3.25,3.25,0,0,0,2.24-.77,2.29,2.29,0,0,0,.65-1,3.75,3.75,0,0,0,.16-1.4v-4h-1Zm12.44,0v5.52l-4.78-5.52h-.82V75h1V69.5L138,75h.87V67.87Zm10.43-.09a3.7,3.7,0,0,0-3.84,3.67,3.63,3.63,0,0,0,1.31,2.8,3.67,3.67,0,0,0,2.5.84,5.18,5.18,0,0,0,2.58-.63V73.34a4.63,4.63,0,0,1-2.52.79,2.65,2.65,0,0,1-2.82-2.68,2.69,2.69,0,0,1,2.83-2.7,4.77,4.77,0,0,1,2.43.71v-1.1A5.92,5.92,0,0,0,148.35,67.77Zm8.2.09h1V75h-1Zm6.92,0V75h4.22v-.93H164.5V67.87Zm-52.35.86a2.7,2.7,0,1,1-2.79,2.71A2.67,2.67,0,0,1,111.12,68.73Zm-3.84,2.71A3.6,3.6,0,0,0,111,75.07a3.66,3.66,0,1,0,0-7.3A3.62,3.62,0,0,0,107.29,71.44Z" fill="#fff"/></svg>
