<?xml version="1.0" standalone="no"?>
<!DOCTYPE svg PUBLIC "-//W3C//DTD SVG 20010904//EN"
 "http://www.w3.org/TR/2001/REC-SVG-20010904/DTD/svg10.dtd">
<svg version="1.0" xmlns="http://www.w3.org/2000/svg"
 width="125.000000pt" height="125.000000pt" viewBox="0 0 125.000000 125.000000"
 preserveAspectRatio="xMidYMid meet">
<metadata>
Created by potrace 1.11, written by Peter Selinger 2001-2013
</metadata>
<g transform="translate(0.000000,125.000000) scale(0.100000,-0.100000)"
fill="#000000" stroke="none">
<path d="M950 1197 c-97 -77 -696 -548 -735 -577 -183 -140 -185 -142 -85
-115 30 8 68 17 84 20 16 3 32 8 36 10 4 2 20 7 36 9 16 3 74 17 129 30 104
25 101 23 168 109 12 16 36 46 52 67 17 20 77 99 135 175 58 75 110 142 115
149 6 6 34 43 64 81 30 39 58 76 64 83 16 21 5 13 -63 -41z"/>
<path d="M1010 1175 c-31 -38 -71 -90 -90 -115 -19 -25 -39 -50 -45 -56 -5 -7
-18 -22 -27 -35 -10 -13 -80 -105 -156 -203 l-139 -179 36 -31 c20 -17 38 -33
41 -36 3 -3 34 -30 70 -60 36 -30 70 -59 76 -65 6 -5 33 -28 59 -50 27 -22
115 -97 195 -166 174 -149 172 -148 166 -117 -5 22 -10 62 -21 161 -2 23 -7
69 -11 102 -4 33 -8 74 -9 90 -2 29 -11 115 -20 185 -2 19 -7 58 -9 85 -8 74
-26 235 -31 275 -2 19 -7 64 -10 100 -4 36 -9 92 -13 125 l-7 60 -55 -70z"/>
<path d="M365 523 c-137 -34 -138 -35 -225 -53 -30 -7 -59 -15 -63 -19 -4 -5
104 -51 240 -104 136 -53 354 -137 483 -187 270 -105 348 -134 335 -122 -149
132 -610 514 -623 516 -9 1 -75 -12 -147 -31z"/>
</g>
</svg>
