<svg version="1" xmlns="http://www.w3.org/2000/svg" width="1365.333" height="1365.333" viewBox="0 0 1024.000000 1024.000000"><path d="M120.4 34.3c-4.2.8-11.1 5.4-12 7.9-.3 1-.9 1.8-1.3 1.8-1 0-3.4 8-2.7 8.7.3.3.1 1.3-.4 2.2-.5 1-.5 2.3 0 3 .4.8.4 2.5 0 4-.4 1.4-.4 3.5 0 4.6.4 1.1.4 2.9 0 4.1-.5 1.1-.5 2.7 0 3.4.4.7.4 2.4 0 3.9-.4 1.4-.4 3.5 0 4.6.4 1.1.4 2.9 0 4s-.4 2.9 0 4 .4 3.3 0 5c-.4 1.7-.3 4.1.1 5.3.5 1.2.4 2.4-.2 2.7-.5.4-.7 1.1-.3 1.6.6 1 .6 3.8.3 15-.1 2.6.1 5.1.5 5.7.3.6.2 1.3-.4 1.7-.6.4-.7 1.1-.4 1.7.4.6.6 3.3.5 6.2-.3 12.3-.3 14.8.3 15.4.9.8 3.4 1.2 8.1 1.3 4.9 0 32.4.1 34.5 0 12.5-.1 22-.1 22.7 0 .4.1 1.3 0 1.8-.1.6-.1 2.8-.2 5-.2 17.6.1 33.3.1 34.5.1.8-.1 4.2-.1 7.5 0h7.5c3.7-.1 38 .1 39.9.3.3 0 1.1-.1 1.6-.2.6-.1 2.8-.2 5-.2 17.6.1 33.3.1 34.5.1.8-.1 4.2-.1 7.5 0h7.5c3.7-.1 38 .1 39.9.3.3 0 1.1-.1 1.6-.2.6-.1 2.8-.2 5-.1h117c3.9-.1 8.4 0 10 .1 1.7.1 3.7.2 4.5.1h13.5c6.6.1 12.7 0 13.5 0h8c3.6.1 7.2.1 8 0h10c4.7.1 9.2.1 10 .1 4.5-.2 21.9-.2 22.7-.1.4.1 1.3 0 1.8-.1.6-.1 2.8-.2 5-.2 13.3.1 33.2.1 34.5.1h32c.8-.1 4.2-.1 7.5 0h7.5c3.7-.1 38 .1 39.9.3.3 0 1.1-.1 1.6-.2.6-.1 2.8-.2 5-.2s10.8.1 19 .1c8.3 0 17.5.1 20.5.2s6.9.1 8.5.1c8.8-.1 17.2-.1 18.5-.1h96c.8 0 5.3 0 10-.1 4.7 0 12.1-.1 16.4 0 4.4.1 8.2-.3 8.5-.9 1.2-1.8.5-101.4-.7-104.2-1.4-3.4-7-9.9-8.6-9.9-.7 0-1.7-.5-2.4-1.2s-2.5-1.4-4-1.6c-5.8-.7-778.3-.7-781.8.1zM103.5 193.8c-.1.2.1 1.9.5 3.8.4 1.8.4 3.4 0 3.4-.5 0-.5 1.2-.2 2.7.4 1.6.6 4.1.5 5.8-.6 6.4-.6 11.3.1 12.3.3.6.2 1.3-.4 1.7-.6.4-.7 1.1-.4 1.7.6 1 .6 2.8.3 15.2-.1 2.4.1 4.8.5 5.4.3.6.2 1.3-.4 1.7-.6.4-.8 1.1-.4 1.6.6 1 .6 3.8.3 15-.1 2.6.1 5.1.5 5.7.3.6.2 1.3-.4 1.7-.6.4-.7 1.1-.4 1.7.8 1.3.9 10.6.1 11.4-.3.3-.1 1.8.3 3.4.4 1.6.6 3.1.2 3.4-.7.8-.6 9.1.2 10.4.3.6.2 1.3-.4 1.7-.6.4-.7 1.1-.4 1.7.6.9.7 5.6.3 12v3.8c.1 1.4.1 4.5.1 7-.1 2.5.1 5.7.3 7.2.2 1.6.1 2.8-.4 2.8s-.6.6-.3 1.3c.9 2.4 1 9.7.1 9.7-.4 0-.5.5-.1 1.2 1.1 1.8 1.1 11.8-.1 11.8-.7 0-.7.3 0 .8.6.4 1.1 5 1.3 10.2.2 5.2.5 12.2.7 15.5.2 3.3.7 10 1 15 .3 4.9.7 10.6 1 12.5.3 1.9.8 5.7 1.1 8.5.2 2.7.6 6.1.9 7.5.2 1.4.6 4.7 1 7.5.3 2.7.8 6.6 1.1 8.5.3 1.9.7 4.8.9 6.5.8 5.7 1.6 10 3.6 20.7 1.1 5.9 2.2 12 2.5 13.5.2 1.6 1 5 1.6 7.8.7 2.7 1.3 5.2 1.3 5.5.1.3.4 1.8.8 3.5.4 1.6 1 4 1.2 5.2 2.1 9.6 7.9 32 9.9 37.8.8 2.2 2.4 7.4 3.6 11.5 1.2 4.1 2.6 8.4 3.1 9.5.5 1.1 1.1 2.9 1.4 4 .6 3.2 9.2 27.1 12.5 35 .4 1.1 3 7.2 5.6 13.5 4.7 11.5 7.6 18 14.1 32 2 4.1 3.4 7.5 3.2 7.5-.2 0 .6 1.4 1.8 3.1 1.2 1.7 2 3.4 1.6 3.8-.3.3-.1.6.5.6.7 0 1.1.3 1 .7-.2 1.2 1.3 4.4 3.4 7.5 1 1.4 1.8 3.3 1.8 4.1 0 .9.4 1.7.8 1.9.5.1 2.6 3.7 4.7 7.8 2.2 4.1 4.3 7.8 4.8 8.1.5.3.8 1 .8 1.5-.1.5.7 1.8 1.6 2.9.9 1.1 1.5 2 1.3 2-.5 0 6.9 12.8 12.4 21.5 13.4 21.3 40.7 60 46 65.3.9.8 1.6 2 1.6 2.5 0 .6.3 1.2.8 1.4.4.1 2.5 2.5 4.7 5.3 2.2 2.7 4.3 5.2 4.6 5.5.3.3 3.4 3.9 6.8 8 14.7 17.6 47.1 51 65.6 67.5 4.9 4.4 9.6 8.7 10.5 9.5 1.6 1.5 10.7 9.1 14.4 12 1 .8 2.6 2.2 3.5 3 .9.8 4.4 3.5 7.6 6 3.3 2.4 6.5 4.9 7.1 5.5.6.5 3.2 2.6 5.8 4.5 2.6 1.9 6.9 5.2 9.6 7.2 2.7 2.1 5.4 3.8 5.9 3.8s1.1.4 1.3.9c.4 1.2 26.9 19.3 29.1 19.9.9.2 1.7.8 1.7 1.3s.7.9 1.5.9 1.5.3 1.5.8c0 .4.9 1.2 2 1.7 1 .6 8.8 5.1 17.2 10.1 23.5 14 39.7 22.5 45.8 24.2 4.9 1.3 12-.7 21.9-6.2 4.4-2.4 9.8-5.2 12.1-6.2 2.2-1 4-2.1 4-2.5 0-.4.8-.9 1.8-1.2.9-.3 4-2 6.7-3.6 2.8-1.7 5.7-3.4 6.5-3.8 4.6-2.1 46-28.8 50.5-32.5.5-.5 4.9-3.6 9.6-7.1 9.6-6.9 26-19.4 30.1-22.9 4.2-3.7 6.9-5.9 13.3-11.3 3.3-2.7 7-5.9 8.1-7 1.2-1.1 6.4-5.8 11.5-10.5 18-16.5 47.2-46.6 58.3-60.2 1.1-1.3 4.4-5.3 7.5-8.9 3.1-3.6 6.7-8 8.1-9.8 1.4-1.9 3.2-4.2 4-5.1 3.4-4.1 4.8-5.9 11.6-15 11.5-15.5 23.1-32.4 33.6-49 1.9-3 4.6-7.3 6-9.5 1.4-2.2 3.5-5.8 4.7-8 1.2-2.2 3.2-5.8 4.6-8 2.6-4.4 6.9-12.3 9.3-17 .9-1.7 1.8-3.2 2.1-3.5 1.2-1 19.9-39.8 24.8-51.3 1.4-3.4 3.3-7.8 4.1-9.7.9-1.9 1.6-3.7 1.7-4 .1-.3.7-1.9 1.4-3.5.7-1.7 2.9-7.3 4.8-12.5 2-5.2 4-10.6 4.6-12 .6-1.4 1.1-2.7 1.2-3 0-.3 1.2-3.7 2.5-7.5 1.3-3.9 2.5-7.2 2.5-7.5.1-.3.5-1.4.9-2.5 4.1-10.8 16.5-54.5 18.2-64 .3-1.7 1.1-5.5 1.9-8.5.7-3 1.6-6.9 1.9-8.5.3-1.7.7-4.1 1-5.5.3-1.4.8-3.6 1.1-5 .3-1.4.7-3.9.9-5.7.3-1.8.7-4 1-5 .3-1 .8-3.6 1.1-5.8.3-2.3.7-5 .9-6.2.9-4.4 1.8-9.9 2.1-12.3 1.2-11.1 1.6-14.7 2-16 .2-.8.7-4.4 1-8 .3-3.6.7-8.1 1-10 1.4-13.4 2.6-31.5 2.9-47.6.2-6.1.6-11.6 1-12.2.4-.7.4-1.2-.1-1.2-.9 0-.9-5.7-.1-6.6.4-.3.3-1.8-.1-3.2-.3-1.5-.5-4.1-.4-5.7.6-6.4.6-11.3-.1-12.3-.3-.6-.2-1.3.4-1.7.6-.4.7-1.1.4-1.7-.6-1-.6-2.8-.3-15.2.1-2.4-.1-4.8-.5-5.4-.3-.6-.2-1.3.3-1.7.6-.3.7-1.5.2-2.8-.5-1.2-.5-3.1-.1-4.2s.4-2.9 0-4-.4-2.9 0-4.1c.5-1.1.5-2.7 0-3.4-.4-.7-.4-2.4 0-3.9.4-1.4.4-3.5 0-4.6-.4-1.1-.4-2.9 0-4s.4-2.9 0-4-.4-2.9 0-4 .4-2.9 0-4-.4-2.9 0-4.1c.5-1.1.5-2.7 0-3.4-.4-.7-.4-2.4 0-3.9.4-1.4.4-3.5 0-4.6-.4-1.1-.4-2.9 0-4s.4-2.9 0-4-.4-3.3 0-5c.4-1.7.3-4.1-.1-5.3-.5-1.2-.4-2.4.2-2.7.5-.4.7-1.1.3-1.6-.6-1-.7-6.8-.2-13.4.1-1.7-.1-4.1-.5-5.5l-.6-2.5H511.5c-224.2 0-407.8.1-408 .3zm420.2 134.1c1 .5 4 2 6.6 3.2 5.2 2.6 14.7 10.8 14.7 12.7 0 .7.4 1.2.8 1.2 1.5 0 6.3 11 7.2 16.3 1.2 8.1.3 16.3-2.6 22-2.7 5.6-7.6 12.2-10.9 14.8-1.1.9-3.1 2.6-4.4 3.8-1.3 1.1-3.2 2.3-4.2 2.6-3 1-2.3 2.6 4.4 9.7 3.4 3.7 9.1 10 12.7 13.9 3.6 3.9 8.5 9.2 11 11.9 2.5 2.7 8.3 9 13 14.1 4.7 5.1 10.4 11.2 12.7 13.6 2.2 2.3 4 4.3 3.9 4.3-.2 0 3.4 3.8 7.8 8.5 4.5 4.7 8.4 8.5 8.7 8.5.3 0 4.2-3.5 8.6-7.8 4.4-4.2 11.4-10.8 15.4-14.6 4.1-3.7 12.8-12 19.5-18.3l12.1-11.6-3.9-4.1c-3.7-3.8-9.6-13.6-8.2-13.6.4 0 .1-.6-.5-1.4-2.6-3.1-.8-19.6 2.6-23.7.7-.8 1.3-1.9 1.3-2.3 0-1.2 10.3-10.5 11.2-10 .4.3.8.1.8-.4 0-1.3 10.6-4.6 15.3-4.8 9.7-.4 18.5 3.6 23.7 10.7 8.8 12.2 9.6 28.9 1.9 40.2-2.7 4-10 10.7-11.6 10.7-.7 0-1.3.4-1.3.9s-2.9 1.7-6.6 2.7c-4 1-6.9 2.4-7.5 3.6-.5 1-.7 1.8-.4 1.8.3 0-.1 1.6-.9 3.5s-1.3 3.5-1.1 3.5c.2 0-.1 1.5-.6 3.2-.6 1.8-1.2 4-1.4 4.8-.1.8-1 4.2-1.9 7.5-1.8 6.6-2.7 10.2-3.1 12.5-.1.8-.5 2.2-.8 3-.4.8-2.7 9.6-5.2 19.5-2.6 9.9-6 23.2-7.6 29.5-3.4 12.8-3.7 14.1-4.3 17-.3 1.1-1.9 7.3-3.7 13.7-1.7 6.5-3.2 12.4-3.2 13 0 .7-1.3 2.7-2.8 4.5l-2.7 3.3H383l-2.6-2.6c-2.4-2.4-4.8-9.6-7-20.9-.3-1.4-.9-3.9-1.4-5.5-.5-1.7-1.1-4.1-1.4-5.5-.3-1.4-.9-4-1.5-5.9-.6-1.9-.8-3.8-.5-4.2.3-.5 0-.9-.7-.9s-1-.3-.7-.6c.4-.3-.6-5.2-2.2-10.9-1.5-5.7-2.5-10.7-2.2-11 .3-.3.1-.5-.4-.5s-.9-1-1-2.3c-.1-2.4-.7-5.3-1.7-7.7-.5-1.4-4.5-17.7-5.1-21-.1-.8-.8-3.5-1.5-6s-1.5-5.3-1.7-6.3c-.2-1-.5-2.6-.8-3.5-.3-.9-.7-2.8-1-4.2-.3-1.4-.7-3.4-1-4.5-1.6-6.3-3.8-15.2-4-16.2-.3-1.8-.7-2-5.3-2.7-2.3-.3-5.8-1.2-7.8-2-5-2.1-12.5-7.7-12.5-9.3 0-.7-.4-1.3-1-1.3-1.1 0-3.7-4.6-5.7-10-1.4-3.5-1.9-14.6-1-18.6 1.2-4.9 5.9-12.4 10.2-16.2 12.5-11 28.9-11.9 41.8-2.3 10.8 8 16.6 23.2 13.2 34.6-.6 2.2-1.2 4.2-1.3 4.5-.5 2.8-2.7 6.5-6.1 10.4l-4.1 4.7 10.8 10.4c5.9 5.7 17.9 17.4 26.7 25.9 8.8 8.6 16.3 15.6 16.6 15.6.4 0 4-3.6 8-8 4.1-4.5 9.2-10 11.4-12.4 2.2-2.3 8.1-8.6 13-14 5-5.4 10.9-11.9 13.3-14.4 2.3-2.6 4.2-5 4.2-5.4 0-.5.6-.8 1.4-.8.8 0 1.6-.4 1.8-1 .3-1.1 8.1-9.9 17.5-19.9l6.3-6.6-3.7-2.2c-5.1-3.1-13.3-10.5-13.3-12 0-.7-.3-1.3-.8-1.3-.8 0-4-6.1-6.2-11.5-3.9-10-.6-27.5 6.7-35.5 1.3-1.4 2.3-2.8 2.3-3.2 0-1.1 11.8-9.7 15-11.1 8.2-3.4 22.9-4.4 27.7-1.8zM655.5 604c4.4 1.6 7.6 3.8 11.7 8 4.8 4.9 6 6.9 7.8 12.9 2.1 6.7 2.3 14.5.7 20.1-.2.8-.7 2.7-1.2 4.2-.4 1.6-1.1 2.8-1.6 2.8s-.9.6-.9 1.4c0 .8-2.3 3.5-5.2 6.1-5.2 4.7-10.5 7.6-14.5 7.8-1.3.1-2.3.5-2.3.8 0 .4-62.6.7-139.1.7-152.2 0-144.8.3-154.1-6-4.4-3-11.7-12.1-12.2-15.1-.1-.7-.4-1.7-.7-2.2-.4-.6-.7-2.4-.8-4-.1-1.7-.3-4.4-.5-6-.3-3.8 1.6-12 3.8-16.4 2.2-4.1 9.4-12.1 11-12.1.7 0 1.7-.5 2.4-1.2.6-.6 1.7-1.3 2.4-1.5 11.1-2.7 15.4-2.8 149.9-2.7l137.4.1 6 2.3z"/></svg>