<svg width="168" height="168" viewBox="0 0 168 168" xmlns="http://www.w3.org/2000/svg" xmlns:xlink="http://www.w3.org/1999/xlink"><defs><path id="a" d="M0 0h168v168H0z"/><mask id="c" x="0" y="0" width="168" height="168" fill="#fff"><use xlink:href="#a"/></mask><path id="b" d="M2 2h164v164H2z"/><mask id="d" x="0" y="0" width="164" height="164" fill="#fff"><use xlink:href="#b"/></mask></defs><g fill="none" fill-rule="evenodd"><use stroke="#393939" mask="url(#c)" stroke-width="2" fill="#FFF" xlink:href="#a"/><use stroke="#393939" mask="url(#d)" stroke-width="2" fill="#FFF" xlink:href="#b"/><path d="M57.2 106.6c0 5.467.133 9.767.4 12.9.267 3.133.967 5.533 2.1 7.2 1.133 1.667 2.8 2.767 5 3.3 2.2.533 5.233.933 9.1 1.2v6.8H21.4v-6.8c3.733-.267 6.7-.667 8.9-1.2 2.2-.533 3.9-1.6 5.1-3.2 1.2-1.6 1.967-3.867 2.3-6.8.333-2.933.5-6.933.5-12V81.4c0-15.867-.4-25.533-1.2-29-.4-1.733-.9-3.167-1.5-4.3s-1.5-2-2.7-2.6c-1.2-.6-2.733-1-4.6-1.2-1.867-.2-4.267-.3-7.2-.3v-6.4L53 30l2.4 19.8h.8c5.067-6.267 11-11.133 17.8-14.6 6.8-3.467 14.2-5.2 22.2-5.2 6.133 0 11.733 1 16.8 3s8.933 4.733 11.6 8.2c2.267 3.067 3.867 7.033 4.8 11.9.933 4.867 1.4 11.567 1.4 20.1v33.4c0 5.467.167 9.767.5 12.9.333 3.133 1.033 5.533 2.1 7.2 1.067 1.667 2.7 2.767 4.9 3.3 2.2.533 5.1.933 8.7 1.2v6.8H95.2v-6.8c3.733-.133 6.7-.5 8.9-1.1 2.2-.6 3.867-1.7 5-3.3 1.133-1.6 1.867-3.9 2.2-6.9.333-3 .5-6.967.5-11.9V81.6c0-7.6-.4-14-1.2-19.2-.8-5.2-2.1-9.4-3.9-12.6-1.8-3.2-4.167-5.5-7.1-6.9-2.933-1.4-6.467-2.1-10.6-2.1-6 0-11.5 1.567-16.5 4.7s-8.9 7.433-11.7 12.9a45.053 45.053 0 0 0-1.7 3.8c-.467 1.2-.833 2.6-1.1 4.2-.267 1.6-.467 3.433-.6 5.5-.133 2.067-.2 4.7-.2 7.9v26.8z" fill="#898989"/><path d="M61.4 104.2c0 5.467.133 9.8.4 13 .267 3.2.967 5.633 2.1 7.3 1.133 1.667 2.767 2.767 4.9 3.3 2.133.533 5.133.933 9 1.2v7H24.6v-7c3.867-.133 6.933-.5 9.2-1.1 2.267-.6 4-1.7 5.2-3.3 1.2-1.6 1.967-3.9 2.3-6.9.333-3 .5-7.033.5-12.1V82.2c0-9.067-.1-16.133-.3-21.2-.2-5.067-.867-8.8-2-11.2-1.133-2.4-2.9-3.833-5.3-4.3-2.4-.467-5.733-.7-10-.7v-7l35-7.6L62 55h.8c1.733-4 3.9-7.667 6.5-11s5.433-6.167 8.5-8.5 6.267-4.167 9.6-5.5c3.333-1.333 6.733-2 10.2-2 4.267 0 7.633 1.033 10.1 3.1 2.467 2.067 3.7 4.833 3.7 8.3 0 3.2-1 5.7-3 7.5-2 1.8-4.867 2.7-8.6 2.7-2.133 0-3.933-.267-5.4-.8-1.467-.533-2.767-1.1-3.9-1.7-1.133-.6-2.2-1.167-3.2-1.7-1-.533-2.1-.8-3.3-.8-3.6 0-7.2 2.3-10.8 6.9-3.6 4.6-6.4 10.433-8.4 17.5-1.067 3.867-1.9 8.233-2.5 13.1-.6 4.867-.9 9.967-.9 15.3v6.8z" fill="#393939"/></g></svg>