<svg width="340" height="170" viewBox="0 0 340 170" xmlns="http://www.w3.org/2000/svg" xmlns:xlink="http://www.w3.org/1999/xlink"><svg width="170" height="170" viewBox="0 0 170 170"><title>play</title><path fill="#393939" d="M55.75 47.501c0 5.753-4.624 10.416-10.332 10.416-5.708 0-10.333-4.663-10.333-10.416 0-5.75 4.625-10.417 10.333-10.417 5.707-.001 10.332 4.666 10.332 10.417zm.083 18.75H35v66.664h20.833V66.251zm33.262 0H68.392v66.664h20.703V97.924c0-19.46 25.119-21.052 25.119 0v34.991H135V90.707c0-32.834-37.173-31.641-45.905-15.476v-8.98z"/></svg><svg width="170" height="170" viewBox="0 0 170 170" x="170"><title>play</title><path fill="#393939" d="M140 52.159a46.414 46.414 0 0 1-12.961 3.42c4.662-2.688 8.241-6.948 9.921-12.021a46.236 46.236 0 0 1-14.331 5.271c-4.111-4.221-9.982-6.86-16.473-6.86-14.566 0-25.275 13.088-21.986 26.674-18.749-.904-35.377-9.554-46.511-22.698-5.911 9.764-3.065 22.54 6.979 29.009a23.143 23.143 0 0 1-10.216-2.718c-.247 10.065 7.246 19.479 18.101 21.578-3.33.87-6.811.995-10.194.368 2.868 8.634 11.201 14.908 21.083 15.088-9.486 7.16-21.441 10.357-33.412 9.004 9.987 6.164 21.853 9.756 34.593 9.756 41.897 0 65.579-34.065 64.144-64.624A45.018 45.018 0 0 0 140 52.159z"/></svg></svg>