<svg version="1" xmlns="http://www.w3.org/2000/svg" width="933.333" height="933.333" viewBox="0 0 700.000000 700.000000"><path d="M327.7.6c-.3.2-14.8 1.3-17.2 1.4-1.4 0 29 31 95.4 97.4l97.4 97.4-7.9 7.7c-4.4 4.3-9.8 9.5-12 11.7l-4.2 3.9-105-105.1C316.4 57.3 268.6 10 267.8 10c-3.2 0-34.8 9.6-34.8 10.6 0 .2 50.1 50.6 111.4 111.8l111.5 111.5-11.5 11.4c-6.3 6.3-11.4 11.9-11.4 12.4 0 .4 52.4 53.2 116.3 117.1l116.4 116.4 4.3-9.9c5.7-12.9 9-21.4 9-23 0-.7-49.9-51.3-111-112.3-61-61-111-111.4-111-111.9 0-1.1 21.2-23.1 22.3-23.1.5 0 48.1 47.3 105.9 105.1C643 383.8 690.3 431 690.5 430.8c.4-.6 4.6-22.7 5.9-31.1l1.3-8.6-96.9-96.8c-53.2-53.2-96.8-97.1-96.8-97.5 0-1 21.8-22.8 22.7-22.8.5 0 39.6 38.8 87.1 86.2l86.3 86.3-.6-12.5c-.3-6.9-.8-14.1-1-16-.3-1.9-.7-5.6-1-8.1-.2-2.6-.7-6.9-1-9.5l-.7-4.9-72.4-72.5c-39.8-39.9-72.4-72.9-72.4-73.3 0-1.4 22.1-22.8 23.1-22.5.6.2 24.5 23.7 53 52.3l52 52-2.5-6.5c-1.3-3.6-3.3-8.8-4.5-11.7-2.8-7.2-13.8-29.3-19.1-38.3-5.1-8.8-20.2-31.7-22.7-34.5-1-1.1-3.1-3.8-4.7-6-1.7-2.2-3.2-4.2-3.5-4.5-.4-.3-3.8-4.3-7.8-9-3.9-4.7-9.4-10.7-12.1-13.4l-5-4.9-11.7 11.8-11.7 11.7-52.9-53-52.9-53-7.7-2.6C444.6 12.4 413.8 5 408.1 5c-2.1 0 10.5 13.1 69.8 72.4l72.4 72.4-11.8 11.7-11.7 11.8-86.7-86.7L353.4-.1l-12.8.3c-7 .2-12.8.4-12.9.4zM190.5 38.3C180 43.8 169 50.3 169 51c0 .3 54 54.5 120 120.5l120 119.9 11-11.2c6.1-6.2 11.1-11.6 11.3-12.2.1-.7-223.1-225.2-230.9-232.2-1.8-1.5-2.4-1.4-9.9 2.5zM131.5 76.4c-4.4 3.5-10 8.2-12.5 10.4l-4.5 4.1 123.6 123.6 123.6 123.7 11.7-11.8 11.8-11.7-122.4-122.4C195.6 125 140.3 70 140 70c-.3 0-4.2 2.9-8.5 6.4zM86.5 119.7c-7.7 9-16.5 20.2-16.5 21 0 1 243.2 244.3 244.2 244.3.4 0 5.8-5.2 12.1-11.6l11.5-11.6 123.7 123.7c68 68 123.8 123.5 124 123.3 5-4.5 22.5-22.4 22.5-23.1 0-1.2-245.2-246.7-246.3-246.7-.5 0-5.9 4.9-12 11-6.1 6-11.5 11-11.9 11-.5 0-55.6-54.8-122.6-121.8-67-66.9-122.5-122.2-123.3-122.9-1.2-1-2.2-.4-5.4 3.4zM46 176.7c-2.5 4.3-6.2 11.2-8.3 15.3l-3.8 7.5L150.4 316l116.5 116.5-11.6 11.9-11.6 11.8L132 344.5 20.2 232.8l-3 9.3c-1.7 5.2-4.2 13.4-5.6 18.2l-2.4 8.9 105.4 105.4L220 480l-11.5 11.5c-6.3 6.3-11.5 11.8-11.5 12.2 0 .5 43.6 44.4 96.8 97.6 91.3 91.3 96.9 96.7 99.7 96.2 1.7-.2 7.5-1.2 13-2.1 5.5-.8 12-2 14.5-2.6 2.5-.5 5.3-1.1 6.4-1.4 1-.2 2-.5 2.2-.7.2-.2-46.8-47.6-104.6-105.4L220 480.4l11.5-11.7c6.3-6.4 11.8-11.7 12.2-11.7.4 0 51 50.2 112.3 111.5l111.5 111.4 14-5.8c14.6-6 18.9-8 18.3-8.6-.1-.2-52.5-52.6-116.2-116.4L267.7 433l1.9-2.1c1-1.2 6.1-6.4 11.2-11.5 5-5.2 9.2-9.8 9.2-10.2 0-.4-53.9-54.6-119.8-120.5L50.4 168.9l-4.4 7.8zM396.8 303c-6 6-10.8 11.2-10.8 11.7 0 .4 55 55.8 122.2 123 120.4 120.4 122.2 122.1 123.8 120 2.7-3.6 12.4-17.9 15-22.1l2.3-3.8-119.9-119.9C463.5 346 409.1 292 408.5 292.1c-.5 0-5.8 5-11.7 10.9zM1.9 313.6c-.1 2.1-.3 5-.5 6.4-.2 1.4-.6 9.7-.9 18.5l-.6 16 86.1 86c47.3 47.3 86 86.3 86 86.7 0 1-21.7 22.8-22.7 22.8-.4 0-33.1-32.3-72.5-71.7C37.3 438.8 5 407.1 5 407.8c0 5.5 7.1 34.3 12.5 51.1l3.5 10.6 52 52c28.6 28.6 52 52.4 52 52.8 0 .4-5 5.8-11.2 11.8l-11.2 11.1 7 6.7c11.3 10.8 15.3 14.3 26.4 22.8 9.4 7.2 34.4 24.3 35.6 24.3.2 0 2.2 1.1 4.4 2.5 2.1 1.3 9.6 5.3 16.7 8.9 11.2 5.5 16 7.8 24.8 11.6 3.8 1.6 10.5 4 11.3 4 .4 0-22.6-23.3-51.2-51.9l-51.8-51.8 11.7-11.8 11.7-11.8 72.3 72.3c39.8 39.8 73.2 72.5 74.2 72.6 1 .2 4.1.6 6.8.9 2.8.3 5.7.8 6.5 1 2.2.6 14 1.5 26 2l10.5.5-86.4-86.4-86.4-86.4 11.7-11.7c6.5-6.4 11.6-11.8 11.4-12-2-2.2-190.1-190.5-191.7-191.9L2 309.7l-.1 3.9zM302.1 397.7l-11.4 11.5 119.9 119.9C476.5 595 530.9 649 531.3 649c1 0 9.3-5.4 20-12.9l7.8-5.5-122.3-122.3C369.5 441 314.3 386 314 386.1c-.3 0-5.6 5.3-11.9 11.6z"/></svg>