<svg xmlns="http://www.w3.org/2000/svg" width="198" height="50" viewBox="0 0 198 50" preserveAspectRatio="xMinYMid" aria-hidden="true" focusable="false"><path d="M34.48,26.88s-.31,0-.41.1H34c-.33,0-.54.11-.75.11h-.1c-.22,0-.53.1-.74.1h-.1c-.23,0-.44.1-.64.1h-.33c-.21,0-.41.11-.74.11l-.21.12a2.23,2.23,0,0,0-.43.1,65.37,65.37,0,0,0-20.26,9.5L6.38,44.64C22.79,30.84,43.86,27,43.86,27a33.14,33.14,0,0,0-9.33,0m50.83-5.59c-3.91,0-7.62,1.36-9.2,4V10.16a2.45,2.45,0,0,0-4.88,0V46.67a2.45,2.45,0,0,0,4.88,0V34.4c0-5.3,3.44-9,8.24-9S92,28.26,92,33.55v13a2.45,2.45,0,0,0,4.87,0v-13c-.11-7.31-4.76-12.17-11.54-12.17m31.33,2.53a2,2,0,0,0-1.9-2h-5.17V14.28a2.45,2.45,0,0,0-4.88,0V21.9H100a2,2,0,1,0,0,4h4.76V46.78a2.45,2.45,0,0,0,4.88,0V25.93h5.17a2,2,0,0,0,1.9-2m12.48,21.28a10,10,0,1,1,9.41-9.95,9.44,9.44,0,0,1-9.41,9.95m0-23.81A13.8,13.8,0,1,0,143,35.17a13.51,13.51,0,0,0-13.79-13.79m31.15,0a11.65,11.65,0,0,0-9.2,4V23.81a2,2,0,1,0-4,0V46.67a2,2,0,0,0,.93,2,2,2,0,0,0,2.18,0,2,2,0,0,0,.93-2V34.4a8.6,8.6,0,0,1,8.62-9c5,0,8.05,2.86,8.05,8.15v13a2,2,0,1,0,4,0v-13c-.11-7.31-4.76-12.17-11.54-12.17m27.43,12c-5.82-1.73-6.89-2.85-6.89-4.76,0-3,3.91-3.45,6.24-3.45a14.71,14.71,0,0,1,6.46,1.72,3.15,3.15,0,0,0,1.59.54,1.7,1.7,0,0,0,1.33-.44,1.75,1.75,0,0,0,.57-1.28c0-1.06-1-1.73-1.73-2.13a17.19,17.19,0,0,0-8.15-2.1c-6.67,0-10.59,2.64-10.59,7.29,0,4.14,3,6.57,10.59,8.62,4,1.16,6.46,1.9,6.46,4.45s-2.32,3.81-6.13,3.81A12.7,12.7,0,0,1,179.72,43a2.18,2.18,0,0,0-1.58-.64A1.73,1.73,0,0,0,176.41,44a2.24,2.24,0,0,0,.85,1.73,15.78,15.78,0,0,0,10.15,3.45c6.47,0,10.59-3,10.59-7.52,0-5.07-4.22-6.66-10.16-8.36m-130.32,0c-5.83-1.73-6.9-2.85-6.9-4.76,0-3,3.91-3.45,6.24-3.45a14.75,14.75,0,0,1,6.47,1.72,3.12,3.12,0,0,0,1.58.54,1.72,1.72,0,0,0,1.9-1.72c0-1.06-1-1.73-1.72-2.13a17.23,17.23,0,0,0-8.16-2.1c-6.67,0-10.59,2.64-10.59,7.29,0,4.14,3,6.57,10.59,8.62,4,1.16,6.47,1.9,6.47,4.45s-2.35,3.81-6.16,3.81A12.68,12.68,0,0,1,49.52,43a2.22,2.22,0,0,0-1.59-.64A1.72,1.72,0,0,0,46.21,44a2.2,2.2,0,0,0,.84,1.73,15.79,15.79,0,0,0,10.16,3.45c6.46,0,10.58-3,10.58-7.52.11-5.07-4.12-6.66-10.15-8.36M36.21,30c-.11,0-.33.1-.43.1s-.11,0-.21.11-.33.1-.54.2-.2.12-.31.12a2.29,2.29,0,0,0-.63.21c-.21.1-.11,0-.21.1a3.28,3.28,0,0,1-.85.31l-1,.33c-.1,0-.31.1-.41.1l6.55,15a2.45,2.45,0,0,0,3.95,1,2.26,2.26,0,0,0,.72-1.69,3.92,3.92,0,0,0-.33-1.17ZM4.59,46.47a2.44,2.44,0,0,1-2.23,1.58,2.28,2.28,0,0,1-1.67-.66A2.31,2.31,0,0,1,0,45.74a2.79,2.79,0,0,1,.31-1.17l19-42.35A2.4,2.4,0,0,1,21.6.64a2.51,2.51,0,0,1,2.33,1.58L34.48,25.81v.1a.59.59,0,0,0-.41.12c-.33,0-.54.11-.85.11h-.1c-.33,0-.53.1-.86.1h-.1c-.21,0-.42.1-.75.1h-.2c-.21,0-.54.11-.74.11h-.31c-.13,0-.33.1-.44.1L21.52,7.81ZM21.52,7.81l8.26,19c.1,0,.32-.12.43-.12h.31c.2-.11.53-.11.74-.21h.21c.22,0,.43-.11.74-.11h.12c.31,0,.51-.1.84-.1h.11c.31,0,.51-.1.84-.1s.31,0,.41-.11v-.12L24,2.31A2.4,2.4,0,0,0,21.62.72a2.57,2.57,0,0,0-2.33,1.59L.33,44.66A2.65,2.65,0,0,0,0,45.83a2.28,2.28,0,0,0,.7,1.69,2.36,2.36,0,0,0,1.73.64,2.28,2.28,0,0,0,2.22-1.59ZM36.21,30c-.11,0-.33.1-.43.1s-.11,0-.21.11-.33.1-.54.2-.2.12-.31.12a2.29,2.29,0,0,0-.63.21c-.21.1-.11,0-.21.1a3.28,3.28,0,0,1-.85.31l-1,.33c-.1,0-.31.1-.41.1l6.55,15a2.45,2.45,0,0,0,3.95,1,2.26,2.26,0,0,0,.72-1.69,3.92,3.92,0,0,0-.33-1.17ZM4.59,46.47a2.44,2.44,0,0,1-2.23,1.58,2.28,2.28,0,0,1-1.67-.66A2.31,2.31,0,0,1,0,45.74a2.79,2.79,0,0,1,.31-1.17l19-42.35A2.4,2.4,0,0,1,21.6.64a2.51,2.51,0,0,1,2.33,1.58L34.48,25.81v.1a.59.59,0,0,0-.41.12c-.33,0-.54.11-.85.11h-.1c-.33,0-.53.1-.86.1h-.1c-.21,0-.42.1-.75.1h-.2c-.21,0-.54.11-.74.11h-.31c-.13,0-.33.1-.44.1L21.52,7.81Z" fill="#eee"/></svg>
