<svg xmlns="http://www.w3.org/2000/svg" width="112" height="70" viewBox="0 0 112 70" preserveAspectRatio="xMinYMid" aria-hidden="true" focusable="false"><path d="M0,70H111.45V54.64H0ZM0,52.64H111.45V0H0Z" fill="#fff" fill-rule="evenodd"/><path d="M98.62,64.79h.92V63.21H100l1,1.58H102l-1.31-2h0l1.17-1.62h-1L100,62.45h-.45v-2.7h-.92ZM94.08,63.5c0,1,.49,1.38,1.28,1.38a1.43,1.43,0,0,0,1.28-.75h0s0,.11,0,.25v.41h.88V61.17H96.6v1.66a1.09,1.09,0,0,1-1,1.22c-.46,0-.57-.29-.57-.73V61.17h-.92Zm-1.93,1.29h.92v-.9h-.92ZM88.24,63a1.1,1.1,0,1,1,1.1,1.13A1.09,1.09,0,0,1,88.24,63Zm-.93,0a2,2,0,1,0,2-1.9A1.92,1.92,0,0,0,87.31,63Zm-4,0a1.88,1.88,0,0,0,2,1.9,2.1,2.1,0,0,0,1.52-.59l-.35-.64a1.71,1.71,0,0,1-1.09.46,1.13,1.13,0,1,1,0-2.26,1.48,1.48,0,0,1,1,.39l.4-.62A2,2,0,0,0,83.29,63Zm-1.71,1.81h.92v-.9h-.92Zm-3.34-2.26a.85.85,0,0,1,.88-.75.71.71,0,0,1,.73.75Zm-1,.45a1.88,1.88,0,0,0,2,1.9,2.34,2.34,0,0,0,1.48-.52l-.36-.65a1.83,1.83,0,0,1-1.06.4,1,1,0,0,1-1.1-1h2.54s0-.24,0-.35a1.58,1.58,0,0,0-1.63-1.72A1.81,1.81,0,0,0,77.27,63ZM73.7,63c0-.72.42-1.12.92-1.12s.92.55.92,1.12c0,.8-.45,1.14-.92,1.14S73.7,63.67,73.7,63Zm-.93,0a1.69,1.69,0,0,0,1.64,1.9,1.28,1.28,0,0,0,1.15-.62h0a1.35,1.35,0,0,0,0,.24v.29h.87v-5h-.92v1.59c0,.11,0,.21,0,.21h0a1.18,1.18,0,0,0-1.07-.47A1.71,1.71,0,0,0,72.77,63Zm-3.69,0a1.1,1.1,0,1,1,1.1,1.13A1.09,1.09,0,0,1,69.08,63Zm-.93,0a2,2,0,1,0,2-1.9A1.92,1.92,0,0,0,68.15,63Zm-4,0a1.88,1.88,0,0,0,2,1.9,2.12,2.12,0,0,0,1.52-.59l-.35-.64a1.71,1.71,0,0,1-1.09.46A1.1,1.1,0,0,1,65.07,63a1.09,1.09,0,0,1,1.11-1.13,1.49,1.49,0,0,1,1,.39l.4-.62A2,2,0,0,0,64.13,63Zm-2.66,1.81h.92V63.36a1.87,1.87,0,0,1,.08-.59,1,1,0,0,1,1-.76h.21v-.89h-.17a1.25,1.25,0,0,0-1.16.93h0a1.77,1.77,0,0,0,0-.26v-.62h-.89Zm-3.38-2.26a.86.86,0,0,1,.88-.75.7.7,0,0,1,.73.75Zm-1,.45a1.88,1.88,0,0,0,2,1.9,2.35,2.35,0,0,0,1.49-.52l-.36-.65a1.83,1.83,0,0,1-1.06.4,1,1,0,0,1-1.11-1h2.55s0-.24,0-.35A1.58,1.58,0,0,0,59,61.08,1.82,1.82,0,0,0,57.12,63ZM50.7,64.79h.92V63.2a2.25,2.25,0,0,1,0-.46,1,1,0,0,1,.91-.83c.43,0,.49.33.49.72v2.16H54V63.2a1.78,1.78,0,0,1,.05-.47.94.94,0,0,1,.89-.82c.42,0,.5.31.5.72v2.16h.92V62.46c0-1-.44-1.38-1.21-1.38a1.46,1.46,0,0,0-1.26.75h0a1,1,0,0,0-1.08-.75,1.4,1.4,0,0,0-1.2.76h0s0-.12,0-.25v-.42H50.7ZM46.16,63.5c0,1,.5,1.38,1.28,1.38a1.43,1.43,0,0,0,1.28-.75h0a1.55,1.55,0,0,0,0,.25v.41h.88V61.17h-.91v1.66a1.09,1.09,0,0,1-1,1.22c-.45,0-.57-.29-.57-.73V61.17h-.92Zm-3.61.85a2.07,2.07,0,0,0,1.43.53c.88,0,1.41-.48,1.41-1.09,0-1.16-1.79-1.1-1.79-1.61,0-.23.23-.33.47-.33a1.42,1.42,0,0,1,.9.31l.34-.66a1.74,1.74,0,0,0-1.23-.42c-.8,0-1.41.4-1.41,1.07,0,1.17,1.79,1.1,1.79,1.64,0,.21-.22.32-.48.32a1.57,1.57,0,0,1-1-.4Zm-4.2.44h.92V63.13a1.51,1.51,0,0,1,.06-.48,1,1,0,0,1,1-.74c.47,0,.58.3.58.74v2.14h.92V62.46c0-1-.47-1.38-1.28-1.38a1.43,1.43,0,0,0-1.31.76h0a1.72,1.72,0,0,0,0-.25v-.42h-.88ZM34.4,63a1.1,1.1,0,1,1,1.1,1.13A1.09,1.09,0,0,1,34.4,63Zm-.93,0a2,2,0,1,0,2-1.9A1.92,1.92,0,0,0,33.47,63Zm-4,0a1.88,1.88,0,0,0,2,1.9A2.12,2.12,0,0,0,33,64.29l-.35-.64a1.71,1.71,0,0,1-1.09.46,1.13,1.13,0,0,1,0-2.26,1.48,1.48,0,0,1,1,.39l.4-.62A2,2,0,0,0,29.45,63Zm-1.71,1.81h.92v-.9h-.92Zm-5.17,0h1l.63-2.06c.05-.2.08-.4.08-.4h0a3.28,3.28,0,0,0,.09.4L25,64.79h1l1.12-3.62h-1l-.65,2.38c-.05.19-.08.38-.08.38h0s0-.19-.08-.38l-.68-2.37h-.81l-.68,2.37a3,3,0,0,0-.09.38h0a2.89,2.89,0,0,0-.07-.38l-.64-2.38h-1Zm-6,0h1l.62-2.06a2.42,2.42,0,0,0,.08-.4h0a3.28,3.28,0,0,0,.09.4L19,64.79h1l1.12-3.62H20.2l-.65,2.38c0,.19-.07.38-.07.38h0s0-.19-.08-.38l-.68-2.37h-.81l-.68,2.37c-.05.19-.09.38-.09.38h0s0-.19-.08-.38l-.64-2.38h-1Zm-6,0h1l.62-2.06a2.42,2.42,0,0,0,.08-.4h0s0,.2.09.4L13,64.79h1l1.12-3.62h-1l-.64,2.38c0,.19-.08.38-.08.38h0s0-.19-.08-.38l-.68-2.37h-.81l-.68,2.37c0,.19-.09.38-.09.38h0a2.89,2.89,0,0,0-.07-.38l-.65-2.38h-1ZM96.16,42.55a3.87,3.87,0,0,0,2.78,1.11,2.41,2.41,0,0,0,2.66-2.33c0-2.84-4.38-2.25-4.38-4.3a1.67,1.67,0,0,1,1.85-1.49,3,3,0,0,1,1.92.74l.42-.71a3.4,3.4,0,0,0-2.34-.84,2.5,2.5,0,0,0-2.73,2.32c0,2.68,4.37,2.13,4.37,4.3A1.57,1.57,0,0,1,99,42.85a3.44,3.44,0,0,1-2.3-1Zm-5.89-3.43V35.64H92a2.48,2.48,0,0,1,1.25.21,1.6,1.6,0,0,1,.8,1.51,1.63,1.63,0,0,1-1.74,1.76Zm-.86,4.39h.86V39.88h2.21l2,3.63h1L93.54,40c-.14-.24-.22-.35-.22-.35v0a2.5,2.5,0,0,0,.33-4.56A4.09,4.09,0,0,0,92,34.88h-2.6Zm-6.69,0h5.17v-.76H83.58v-3.2h3.33v-.77H83.58V35.64h4.08v-.76H82.72Zm-7.93-.76V35.64h1.88a3.29,3.29,0,0,1,3.59,3.55,3.29,3.29,0,0,1-3.59,3.56Zm-.86.76h2.83a4,4,0,0,0,4.4-4.32,4,4,0,0,0-4.4-4.31H73.93Zm-6,0h4.93v-.76H68.76V34.88H67.9Zm-3,0h.86V34.88h-.86Zm-8.71-3a3.36,3.36,0,0,0,6.71,0V34.88h-.86v5.59a2.49,2.49,0,0,1-5,0V34.88h-.87Zm-6.4,2.25V39.36h2.23a1.64,1.64,0,0,1,1.74,1.71,1.58,1.58,0,0,1-1.72,1.68Zm0-4.13v-3h2.12a1.38,1.38,0,0,1,1.5,1.47A1.42,1.42,0,0,1,52,38.62ZM49,43.51h3.09a2.4,2.4,0,0,0,2.64-2.42A2.1,2.1,0,0,0,53.21,39v0a2,2,0,0,0,1.11-1.88A2.14,2.14,0,0,0,52,34.88H49Zm-9.29,0h5.16v-.76h-4.3v-3.2h3.33v-.77H40.53V35.64h4.08v-.76H39.67Zm-10.5,0H30l.49-6c0-.47,0-1.23,0-1.23h0s.27.8.48,1.23L33.1,41.9h.81L36,37.47c.2-.44.46-1.2.46-1.2h0s0,.73,0,1.2l.49,6h.86l-.7-8.63h-.88L34,40c-.2.44-.43,1.06-.43,1.06h0s-.22-.62-.42-1.06l-2.3-5.07h-.9ZM19.9,39.14a3.57,3.57,0,1,1,7.14,0,3.57,3.57,0,1,1-7.14,0Zm-.9,0a4.47,4.47,0,1,0,8.94,0,4.47,4.47,0,0,0-8.94,0Zm-8.32,4.37h.86V39.57h5.09v3.94h.87V34.88h-.87v3.93H11.54V34.88h-.86Zm53.64-17V23h1.77a2.63,2.63,0,0,1,1.25.21,1.6,1.6,0,0,1,.8,1.51,1.63,1.63,0,0,1-1.74,1.76Zm-.86,4.39h.86V27.25h2.21l2,3.63h1l-1.91-3.47a3,3,0,0,0-.23-.35v0A2.31,2.31,0,0,0,69,24.71a2.3,2.3,0,0,0-1.32-2.23,4.11,4.11,0,0,0-1.65-.23H63.46Zm-9.54-4.37a3.57,3.57,0,1,1,7.13,0,3.57,3.57,0,1,1-7.13,0Zm-.9,0a4.47,4.47,0,1,0,8.93,0,4.47,4.47,0,0,0-8.93,0Zm-5.38,4.37h.86V27h3.22v-.76H48.5V23h3.75v-.76H47.64Zm-10,0h5.76V29H39.78V27.38H42.5V25.54H39.78v-1.6h3.4V22.1H37.6ZM30.91,29v-5.1h.9a2.26,2.26,0,0,1,2.43,2.53A2.27,2.27,0,0,1,31.81,29Zm-2.19,1.84h3.17c2.81,0,4.61-1.65,4.61-4.41s-1.8-4.37-4.61-4.37H28.72ZM20.6,26.44a2.41,2.41,0,1,1,4.82,0,2.42,2.42,0,1,1-4.82,0Zm-2.26,0A4.53,4.53,0,0,0,23,31a4.54,4.54,0,0,0,4.67-4.59A4.48,4.48,0,0,0,23,22,4.48,4.48,0,0,0,18.34,26.44Zm-8.49,0A4.44,4.44,0,0,0,14.53,31a4.93,4.93,0,0,0,3.59-1.47L17,28a3.7,3.7,0,0,1-2.37,1.08,2.52,2.52,0,0,1-2.53-2.64,2.4,2.4,0,0,1,2.53-2.5,3.77,3.77,0,0,1,2.23.9l1-1.62A4.69,4.69,0,0,0,14.53,22,4.5,4.5,0,0,0,9.85,26.47ZM73.5,13.35V11.21h.74c1.1,0,1.35.4,1.35,1.06a1,1,0,0,1-1.14,1.08Zm-2.18,4.8H73.5v-3h1l1.58,3h2.43l-1.73-3.07a4.28,4.28,0,0,0-.34-.53v0a2.66,2.66,0,0,0,1.34-2.4,2.55,2.55,0,0,0-1.65-2.55,4.61,4.61,0,0,0-1.73-.21H71.32Zm-6.9,0h5.76V16.31H66.6V14.65h2.72V12.81H66.6v-1.6H70V9.37H64.42Zm-11.1,0h2.19l.28-3.95a12.93,12.93,0,0,0,0-1.48h0s.3.92.5,1.48l.94,2.54h1.87l.93-2.54c.2-.56.5-1.48.5-1.48h0a12.93,12.93,0,0,0,0,1.48l.27,3.95H63l-.73-8.78H59.94l-1.3,3.71c-.2.56-.45,1.45-.45,1.45h0s-.25-.89-.45-1.45l-1.3-3.71H54.05Zm-8.73-3.23c0,2,1.48,3.38,3.75,3.38a3.38,3.38,0,0,0,3.71-3.38V9.37H49.87v5.55a1.55,1.55,0,0,1-3.09,0V9.37H44.59ZM37.26,17a4.62,4.62,0,0,0,3.25,1.26c2,0,3.15-1.27,3.15-2.73,0-2.77-4-2.58-4-3.68,0-.49.5-.69,1-.69a3.44,3.44,0,0,1,2,.77l.92-1.75a4,4,0,0,0-2.87-1c-1.77,0-3.15,1.07-3.15,2.69,0,2.7,4,2.67,4,3.71,0,.53-.49.7-.94.7a3.71,3.71,0,0,1-2.13-.91Zm-8.54,1.11h2.19V14.06c0-.55-.1-1.5-.1-1.5h0a15.89,15.89,0,0,0,.75,1.5l2.48,4.09h2.2V9.37H34.08v4.1c0,.55.1,1.5.1,1.5h0a15.89,15.89,0,0,0-.75-1.5l-2.47-4.1H28.72ZM20.6,13.7a2.41,2.41,0,1,1,4.82,0,2.42,2.42,0,1,1-4.82,0Zm-2.26,0A4.54,4.54,0,0,0,23,18.3a4.54,4.54,0,0,0,4.67-4.6A4.49,4.49,0,0,0,23,9.22,4.48,4.48,0,0,0,18.34,13.7Zm-8.49,0a4.44,4.44,0,0,0,4.68,4.56,4.91,4.91,0,0,0,3.59-1.48L17,15.25a3.7,3.7,0,0,1-2.37,1.08,2.52,2.52,0,0,1-2.53-2.64,2.4,2.4,0,0,1,2.53-2.5,3.79,3.79,0,0,1,2.23.89l1-1.62a4.69,4.69,0,0,0-3.34-1.24A4.5,4.5,0,0,0,9.85,13.74Z" fill="#111821" fill-rule="evenodd"/></svg>
