<svg xmlns="http://www.w3.org/2000/svg" width="123.36" height="69.99" viewBox="0 0 123.36 69.99" preserveAspectRatio="xMinYMid" aria-hidden="true" focusable="false"><path d="M0,43.84H123.36V0H0Zm0,8.94H123.36v-7.3H0ZM16.68,67.66v-8h3.54a4.8,4.8,0,0,1,1.62.21,1.8,1.8,0,0,1,.88.76,2.18,2.18,0,0,1,.34,1.2,2,2,0,0,1-.55,1.43,2.83,2.83,0,0,1-1.7.73,3.11,3.11,0,0,1,.64.4,5.54,5.54,0,0,1,.87,1.06l1.38,2.18H22.38L21.33,66c-.31-.48-.57-.84-.76-1.1a2.39,2.39,0,0,0-.54-.53,1.67,1.67,0,0,0-.48-.21,2.81,2.81,0,0,0-.59,0H17.74v3.55Zm1.06-4.47H20a3.45,3.45,0,0,0,1.14-.14,1.21,1.21,0,0,0,.62-.48,1.31,1.31,0,0,0,.21-.71,1.19,1.19,0,0,0-.41-.93,1.94,1.94,0,0,0-1.3-.36H17.74Zm10.82,2.6,1,.13a2.46,2.46,0,0,1-.89,1.38A3.05,3.05,0,0,1,25,67a3,3,0,0,1-.75-2.19A3.18,3.18,0,0,1,25,62.56a2.57,2.57,0,0,1,2-.81,2.51,2.51,0,0,1,1.9.79,3.12,3.12,0,0,1,.74,2.22s0,.14,0,.26H25.27a2.23,2.23,0,0,0,.54,1.45A1.62,1.62,0,0,0,27,67,1.5,1.5,0,0,0,28,66.7a1.92,1.92,0,0,0,.61-.91m-3.24-1.58h3.25a1.89,1.89,0,0,0-.37-1.08A1.52,1.52,0,0,0,27,62.56a1.58,1.58,0,0,0-1.14.45,1.79,1.79,0,0,0-.51,1.2m5.29,3.92,1,.12a.93.93,0,0,0,.33.65,1.65,1.65,0,0,0,1,.27A1.79,1.79,0,0,0,34,68.9a1.37,1.37,0,0,0,.5-.75,5.78,5.78,0,0,0,.07-1.25,2,2,0,0,1-1.6.76,2.22,2.22,0,0,1-1.86-.86,3.3,3.3,0,0,1-.66-2.06,3.87,3.87,0,0,1,.3-1.53,2.46,2.46,0,0,1,.88-1.07,2.3,2.3,0,0,1,1.34-.39,2.07,2.07,0,0,1,1.69.84v-.71h.89v5a4.67,4.67,0,0,1-.27,1.91,2,2,0,0,1-.87.88A3,3,0,0,1,32.9,70a2.74,2.74,0,0,1-1.68-.47,1.54,1.54,0,0,1-.61-1.39m.81-3.46a2.48,2.48,0,0,0,.46,1.65,1.43,1.43,0,0,0,1.13.52,1.45,1.45,0,0,0,1.14-.52,3,3,0,0,0,0-3.21A1.48,1.48,0,0,0,33,62.57a1.45,1.45,0,0,0-1.12.53,2.35,2.35,0,0,0-.46,1.57M37,60.8h1V59.69H37Zm0,6.86h1V61.88H37Zm2.84-.34a2.77,2.77,0,0,0,1.73.46,3,3,0,0,0,1.22-.23,1.93,1.93,0,0,0,.83-.67,1.67,1.67,0,0,0,.29-.92,1.41,1.41,0,0,0-.24-.84,1.49,1.49,0,0,0-.64-.51,12.59,12.59,0,0,0-1.46-.46c-.48-.13-.77-.21-.87-.25a.78.78,0,0,1-.38-.26.52.52,0,0,1-.12-.34.65.65,0,0,1,.29-.52,1.61,1.61,0,0,1,1-.22,1.39,1.39,0,0,1,.89.25,1,1,0,0,1,.38.69l1-.13a2,2,0,0,0-.34-.89,1.64,1.64,0,0,0-.76-.53,3.43,3.43,0,0,0-1.2-.2,2.91,2.91,0,0,0-.85.12,2,2,0,0,0-.63.29,1.56,1.56,0,0,0-.48.54,1.47,1.47,0,0,0-.18.71,1.5,1.5,0,0,0,.22.78,1.42,1.42,0,0,0,.63.55,9.42,9.42,0,0,0,1.5.47,4,4,0,0,1,1,.33.59.59,0,0,1,.29.52.83.83,0,0,1-.33.65,2,2,0,0,1-2.06,0,1.34,1.34,0,0,1-.45-.89l-1,.15a2.2,2.2,0,0,0,.75,1.39m7.37-.54.13.87a3.55,3.55,0,0,1-.75.08,1.61,1.61,0,0,1-.83-.17.92.92,0,0,1-.41-.44A3.47,3.47,0,0,1,45.23,66V62.65H44.5v-.77h.73V60.45l1-.58v2h1v.77h-1V66a1.42,1.42,0,0,0,.06.53.38.38,0,0,0,.16.19.66.66,0,0,0,.34.07l.44,0m4.92-1,1,.13a2.51,2.51,0,0,1-.89,1.38,2.74,2.74,0,0,1-1.66.48,2.7,2.7,0,0,1-2-.77,3.09,3.09,0,0,1-.74-2.19,3.18,3.18,0,0,1,.75-2.26,2.73,2.73,0,0,1,3.86,0,3.11,3.11,0,0,1,.73,2.22V65H48.84a2.18,2.18,0,0,0,.54,1.45,1.62,1.62,0,0,0,1.21.51,1.51,1.51,0,0,0,.93-.28,2,2,0,0,0,.61-.91m-3.24-1.58h3.25a2,2,0,0,0-.37-1.08,1.54,1.54,0,0,0-1.23-.57A1.58,1.58,0,0,0,49.4,63a1.75,1.75,0,0,0-.51,1.2m5.46,3.45V61.88h.89v.88a2.32,2.32,0,0,1,.62-.81,1.1,1.1,0,0,1,.63-.2,1.93,1.93,0,0,1,1,.32l-.35.9a1.41,1.41,0,0,0-.71-.21,1,1,0,0,0-.58.19,1,1,0,0,0-.36.54,3.79,3.79,0,0,0-.16,1.14v3h-1m7.7-1.87,1,.13a2.51,2.51,0,0,1-.89,1.38A3.07,3.07,0,0,1,58.49,67a3.09,3.09,0,0,1-.74-2.19,3.18,3.18,0,0,1,.75-2.26,2.57,2.57,0,0,1,2-.81,2.53,2.53,0,0,1,1.9.79,3.11,3.11,0,0,1,.73,2.22V65H58.76a2.23,2.23,0,0,0,.54,1.45,1.61,1.61,0,0,0,1.22.51,1.48,1.48,0,0,0,.92-.28,1.85,1.85,0,0,0,.61-.91m-3.24-1.58h3.25a2,2,0,0,0-.37-1.08,1.54,1.54,0,0,0-1.23-.57,1.58,1.58,0,0,0-1.14.45,1.75,1.75,0,0,0-.51,1.2M68,67.66v-.74a1.8,1.8,0,0,1-1.62.86,2.26,2.26,0,0,1-1.28-.38,2.51,2.51,0,0,1-.89-1.06,3.55,3.55,0,0,1-.32-1.57,4.09,4.09,0,0,1,.28-1.56,2.24,2.24,0,0,1,.87-1.08,2.3,2.3,0,0,1,1.29-.38,1.85,1.85,0,0,1,.92.23,1.87,1.87,0,0,1,.67.57V59.69h1v8Zm-3.11-2.88a2.5,2.5,0,0,0,.47,1.65A1.43,1.43,0,0,0,66.5,67a1.38,1.38,0,0,0,1.1-.53,2.36,2.36,0,0,0,.45-1.59,2.63,2.63,0,0,0-.46-1.73,1.41,1.41,0,0,0-2.23,0A2.66,2.66,0,0,0,64.92,64.78Zm9.53,2.88h-.91v-8h1v2.84a2,2,0,0,1,1.59-.78,2.48,2.48,0,0,1,1,.22,2.05,2.05,0,0,1,.79.6,2.87,2.87,0,0,1,.48.94,4.09,4.09,0,0,1,.17,1.17A3.26,3.26,0,0,1,77.83,67a2.32,2.32,0,0,1-1.77.81,1.84,1.84,0,0,1-1.61-.85Zm0-2.93a3,3,0,0,0,.29,1.5,1.42,1.42,0,0,0,2.37.2,2.52,2.52,0,0,0,.47-1.67,2.48,2.48,0,0,0-.45-1.66A1.37,1.37,0,0,0,76,62.56a1.41,1.41,0,0,0-1.12.56A2.42,2.42,0,0,0,74.42,64.73Zm9.13,2.93v-.85a2.1,2.1,0,0,1-1.83,1,2.3,2.3,0,0,1-1-.19,1.51,1.51,0,0,1-.66-.49,1.8,1.8,0,0,1-.31-.73,6.05,6.05,0,0,1-.06-.91V61.88h1v3.21a5.75,5.75,0,0,0,.06,1,1,1,0,0,0,.39.6,1.2,1.2,0,0,0,.74.22,1.61,1.61,0,0,0,.83-.22,1.2,1.2,0,0,0,.54-.62A3,3,0,0,0,83.45,65V61.88h1v5.78h-.89M86,60.8h1V59.69H86Zm0,6.86h1V61.88H86Zm2.45,0h1v-8h-1Zm6.25,0v-.74a1.8,1.8,0,0,1-1.62.86,2.26,2.26,0,0,1-1.28-.38,2.61,2.61,0,0,1-.9-1.06,3.7,3.7,0,0,1-.32-1.57,4.09,4.09,0,0,1,.29-1.56,2.24,2.24,0,0,1,.87-1.08A2.3,2.3,0,0,1,93,61.75a1.89,1.89,0,0,1,.93.23,1.92,1.92,0,0,1,.66.57V59.69h1v8Zm-3.1-2.88A2.5,2.5,0,0,0,92,66.43a1.43,1.43,0,0,0,1.12.55,1.36,1.36,0,0,0,1.09-.53,2.36,2.36,0,0,0,.46-1.59,2.69,2.69,0,0,0-.46-1.73,1.41,1.41,0,0,0-1.14-.56,1.39,1.39,0,0,0-1.1.53A2.66,2.66,0,0,0,91.58,64.78Zm9.52,1,1,.13a2.51,2.51,0,0,1-.89,1.38A3.07,3.07,0,0,1,97.55,67a3.09,3.09,0,0,1-.74-2.19,3.18,3.18,0,0,1,.75-2.26,2.55,2.55,0,0,1,2-.81,2.5,2.5,0,0,1,1.9.79,3.07,3.07,0,0,1,.74,2.22s0,.14,0,.26H97.82a2.13,2.13,0,0,0,.54,1.45,1.6,1.6,0,0,0,1.21.51,1.53,1.53,0,0,0,.93-.28,1.91,1.91,0,0,0,.6-.91m-3.23-1.58h3.25a1.89,1.89,0,0,0-.38-1.08,1.5,1.5,0,0,0-1.22-.57,1.58,1.58,0,0,0-1.14.45,1.75,1.75,0,0,0-.51,1.2m5.46,3.45V61.88h.88v.88a2.45,2.45,0,0,1,.63-.81,1.1,1.1,0,0,1,.63-.2,1.93,1.93,0,0,1,1,.32l-.35.9a1.41,1.41,0,0,0-.71-.21,1,1,0,0,0-.58.19,1,1,0,0,0-.36.54,3.78,3.78,0,0,0-.17,1.14v3h-1" fill="#fff" fill-rule="evenodd"/><path d="M27.45,7.28H32.4V19.49L27.45,13V7.28m9.76,27.26c1.19-1.74,3.06-4.45,5-7.32v9.22h-5v-1.9M50.21,3c-.59.86-14.1,19.93-14.1,19.93A9.2,9.2,0,0,1,35.26,24a.55.55,0,0,1-.41.25.53.53,0,0,1-.41-.25s-6.45-8.38-7-9.12V25.14c.07.08,7,9.46,7,9.46a.53.53,0,0,0,.41.25.55.55,0,0,0,.41-.25L50.21,13.42V3m15,4.31V36.37H78.48c6.43,0,10.26-3.44,10.26-9.21A6.36,6.36,0,0,0,84.81,21l-.9-.39.83-.5a6.09,6.09,0,0,0,3-5.42c0-4.73-3.32-7.45-9.09-7.45ZM70.14,18V11.82h8.21c2.8,0,4.23,1.13,4.23,3.38,0,1.53-.69,3.35-3.93,3.35H70.14Zm0,13.12V22.87H78.7c3.2,0,4.83,1.47,4.83,4.37s-1.77,4.42-4.83,4.42H70.14ZM104.38,7.23c4.66,0,8,1.95,10.08,5.76l-4.58,2.11a6.09,6.09,0,0,0-5.58-3c-4.52,0-7.45,3.84-7.45,9.78s3,9.78,7.49,9.78c2.6,0,4.29-1,5.92-3.55l4.14,2.44c-2.07,3.93-5.51,5.95-10.23,5.95-7.52,0-12.38-5.74-12.38-14.62,0-8.61,5.18-14.61,12.59-14.61m-72,27v2.12H27.77l-14-21,0,21H8.9V7.28h5c.3.44,13.55,20.4,13.55,20.4l4.95,6.57m9.85-22-5,7.31V7.28h5v4.93M60.71,7.28V36.37h-5V23.73H44.61C45.83,22,47,20.25,48,18.8h7.67V7.28h5" fill="#111821" fill-rule="evenodd"/></svg>
