<svg preserveAspectRatio="xMinYMid" viewBox="0 0 675.9 291.3" xmlns="http://www.w3.org/2000/svg" aria-hidden="true" focusable="false"><path d="m339.9 75.2 11.2-6.5c2.4 6.2 7 10.2 15.3 10.2 7.9 0 10.6-3.3 10.6-7 0-4.9-4.5-6.8-14.3-9.7-10.2-2.9-20-7.2-20-19.8 0-12.5 10.4-19.7 21.8-19.7 10.9 0 19.3 5.6 23.7 14.9l-11 6.4c-2.4-5-6-8.5-12.7-8.5-5.5 0-8.7 2.8-8.7 6.6 0 4.1 2.6 6.3 12.6 9.3 10.5 3.3 21.7 6.8 21.7 20.4 0 12.4-10 20-24.1 20-13.6-.2-22.5-6.8-26.1-16.6zm114.2-51.4v66.4h-13v-27.5h-24.7v27.5h-13.1v-66.4h13.1v26.4h24.7v-26.4zm55.8 54.5h-26.5l-4 12h-14.1l23.2-66.4h16.2l23.3 66.4h-14.2zm-4-12.3-9.1-27.1-9.2 27.1zm80.9-19.9c0 12.3-9.9 22.3-22.2 22.3-.2 0-.3 0-.5 0h-11.7v21.8h-13.1v-66.4h24.8c12.3-.2 22.4 9.5 22.7 21.8zm-13 0c0-5.8-4.1-10.1-9.7-10.1h-11.7v20.1h11.7c5.6.1 9.7-4.3 9.7-10zm67.4 31.6v12.5h-41.1v-66.4h40.6v12.5h-27.5v14.1h25.1v12.3h-25.1v14.9h28zm-247.1 38v66.4h-13v-27.5h-24.7v27.5h-13.1v-66.4h13.1v26.4h24.7v-26.4zm14 33.2c0-19.1 15.5-34.5 34.5-34.4 19.1 0 34.5 15.5 34.4 34.5 0 19.1-15.5 34.5-34.5 34.4-18.9.2-34.3-15-34.4-33.9 0-.2 0-.4 0-.6zm55.9 0c0-12.8-9.4-21.8-21.4-21.8s-21.4 9-21.4 21.8c0 12.7 9.4 21.7 21.4 21.7s21.4-9 21.4-21.7zm92.1 33.2h-13v-43.1l-18.7 30.8h-1.5l-18.7-30.7v43h-13.2v-66.4h13.5l19.1 31.4 19-31.4h13.5zm58.1-12.5v12.5h-41.1v-66.4h40.6v12.5h-27.5v14.1h25.1v12.3h-25.1v14.9h28zm11.5-2.6 11.2-6.5c2.4 6.2 7 10.2 15.3 10.2 7.9 0 10.6-3.3 10.6-7 0-4.9-4.5-6.8-14.3-9.7-10.2-2.9-20-7.2-20-19.8 0-12.5 10.4-19.7 21.8-19.7 10.9 0 19.3 5.6 23.7 14.9l-11 6.4c-2.4-5-6-8.5-12.7-8.5-5.5 0-8.7 2.8-8.7 6.6 0 4.1 2.6 6.3 12.6 9.3 10.5 3.3 21.7 6.8 21.7 20.4 0 12.4-10 20-24.1 20-13.5-.2-22.5-6.7-26.1-16.6zm-258.8 77.4v25.3h-4.7v-25.3l-22.4-36.2h5.3l19.5 31.7 19.4-31.7h5.3zm28.8-5.5c0-17.5 14.2-31.7 31.7-31.7s31.7 14.2 31.7 31.7-14.2 31.7-31.7 31.7c-17.4.1-31.6-13.9-31.7-31.4 0 0 0-.2 0-.3zm58.8 0c-.1-15-12.3-27-27.2-26.9s-27 12.3-26.9 27.2 12.2 26.9 27.1 26.9c14.9.1 27-11.9 27.1-26.8-.1-.1-.1-.2-.1-.4zm42.9 5.6h-19.4v25.2h-4.7v-61.5h24.3c10 0 18.2 8.1 18.2 18.1 0 8.3-5.5 15.5-13.5 17.6l15.3 25.8h-5.4zm-19.4-4.4h19.6c7.6-.1 13.7-6.4 13.5-14-.1-7.4-6.1-13.4-13.5-13.5h-19.6zm91.1 29.6-30.8-30.3v30.3h-4.7v-61.5h4.7v28.7l30-28.7h6.2l-31.1 29.8 32 31.6h-6.3zm-428.5-119.1-102.8-102.8c-3.2 3.5-6.1 7.1-8.9 10.8l101.9 101.9zm-19.6 19.7-100-100c-2.5 4.1-4.8 8.4-6.9 12.8l97.1 97.1zm-19.6 19.6-93-93c-1.8 5-3.2 10-4.5 15.2l87.7 87.7zm-19.7 19.7-80.7-80.8c-.7 6.2-1 12.4-1 18.7l71.9 71.9zm-19.6 19.6-60.2-60.2c1.5 9 3.8 17.9 6.9 26.5l43.5 43.5zm176.7-176.7-43.9-44c-8.6-3.1-17.4-5.3-26.4-6.7l60.5 60.5zm-19.6 19.6-72.1-72.1c-6.2-.1-12.5.3-18.6 1l80.9 80.9zm-19.7 19.6-87.7-87.7c-5.1 1.2-10.2 2.7-15.1 4.5l93.1 93.1zm-19.6 19.7-97.1-97.2c-4.4 2.1-8.6 4.4-12.7 6.9l100.1 100.1zm-19.6 19.6-102-102c-3.7 2.8-7.3 5.7-10.7 8.9l102.9 102.9zm-39.3 39.3 100 100c4-2.4 7.9-5.1 11.7-7.9l-101.9-101.9zm-19.6 19.6 93 93c4.7-1.7 9.4-3.6 13.9-5.8l-97.1-97.1zm-19.7 19.7 80.8 80.8c5.6-.7 11.2-1.6 16.7-2.9l-87.7-87.7zm-19.6 19.6 60.2 60.2c7.1 1.1 14.3 1.8 21.5 1.9l-71.9-71.9zm-19.4 19.4c15 15.1 33.2 26.6 53.1 33.9l-43.5-43.5zm176.5-176.5 72.1 72.1c-.1-7.2-.7-14.3-1.8-21.4l-60.5-60.5zm-19.7 19.6 87.8 87.8c1.3-5.5 2.3-11.1 3-16.7l-80.9-80.9zm-19.6 19.7 97.1 97.1c2.2-4.5 4.1-9.1 5.8-13.9l-93.1-93.1zm-19.6 19.6 102 102c2.9-3.8 5.5-7.7 7.9-11.7l-100.1-100.1zm-19.7 19.6 102.9 102.9c1.7-1.6 3.4-3.2 5.1-4.9 1.6-1.6 3.2-3.3 4.7-4.9l-102.8-102.9zm142.1-54.2c-7.3-20.2-18.9-38.6-34.1-53.7l-9.8 9.8z" fill="#161616"/></svg>
