<svg xmlns="http://www.w3.org/2000/svg" width="1228" height="1394" viewBox="0 0 1228 1394" preserveAspectRatio="xMinYMid" aria-hidden="true" focusable="false"><path d="M881.39,512.11,236.7-132.58Q207-99.91,181.09-65.14L819.87,573.64Zm-123,123.06L131.52,8.35a903.12,903.12,0,0,0-43.11,80l608.4,608.4ZM635.28,758.23,52.37,175.32a908.72,908.72,0,0,0-27.94,95.11L573.75,819.76ZM512.22,881.29,6.07,375.13a917.72,917.72,0,0,0-6,117.07L450.69,942.82ZM389.16,1004.34,11.7,626.88A911.39,911.39,0,0,0,54.89,793.13l272.74,272.75ZM1373.62,19.88,921.79-431.95A917.43,917.43,0,0,0,805-425.7L1312.1,81.41Zm-123,123.06L700.5-407.13A911.38,911.38,0,0,0,605.57-379L1189,204.47ZM1127.51,266,518.69-342.82a906.1,906.1,0,0,0-79.82,43.24L1066,327.53ZM1004.45,389.06,365.51-249.89q-34.67,26-67.32,55.74L942.92,450.58ZM758.34,635.17,1385.16,1262q37.65-22.82,73.48-49.57L819.87,573.64ZM635.28,758.23l582.91,582.91a909,909,0,0,0,87-36L696.81,696.7ZM512.22,881.29l506.15,506.15a916.39,916.39,0,0,0,104.7-18.36L573.75,819.76ZM389.16,1004.34l377.47,377.47a916.5,916.5,0,0,0,134.68,11.63L450.69,942.82ZM267.29,1126.21a909.25,909.25,0,0,0,333.09,212.41L327.63,1065.87ZM1127.51,266l608.82,608.82a906.56,906.56,0,0,0,36.17-86.89L1189,204.47ZM1004.45,389.06l639,638.94q26.82-35.71,49.69-73.36L1066,327.53ZM881.39,512.11l644.69,644.69q16.34-14.83,32.13-30.59,15.18-15.17,29.45-30.89L942.92,450.58Z" fill="#776964"/></svg>
