<svg height="392" viewBox="0 0 332 392" width="332" xmlns="http://www.w3.org/2000/svg"><g fill-opacity=".05" fill-rule="evenodd" transform="translate(0 -108)"><path d="m114.145227 384.896572-114.07547976-114.081938c1.47889973 17.407748 4.76283211 34.683105 9.86794233 51.525771l83.38023793 83.383467z"/><path d="m155.801118 343.242296c-64.7160452-64.714655-113.2530794-113.250646-145.6111021-145.607973-.74622932-.746213-1.90417252.539044-3.05073734.51197-.92444267-.02183-1.80211916-.490073-2.25450902-.501002-.1403796-.003392-.26844201-.227967-.30761441-.04223-2.19468376 10.406161-3.72111597 20.926564-4.57715513 31.486258l134.973819 134.980276z"/><path d="m197.45378 301.588019-169.2500642-169.243607c-4.9468873 9.33838-9.2641121 18.925396-12.9516743 28.699697l161.3744395 161.37121z"/><path d="m72.4925651 426.549234c30.1463059 30.146306 66.0725899 50.999438 104.2075379 62.556167l-83.3802381-83.383466z"/><path d="m114.145227 384.896572 114.081938 114.07548c13.878409 1.17537 27.837543 1.207661 41.725639.077497l-134.980277-134.980277z"/><path d="m155.801118 343.242296 150.211653 150.211652c10.820508-2.496047 21.511856-5.718628 31.983628-9.664513l-161.367981-161.374439z"/><path d="m197.45378 301.588019 169.243607 169.250065c8.863711-4.701481 17.50139-9.961585 25.8646-15.799687l-174.280907-174.277678z"/><path d="m239.106443 259.935357-176.7220607-176.7220604c-6.6582778 7.4655375-12.7837643 15.2410628-18.3861465 23.2716824l174.2809072 174.277678z"/><path d="m280.762334 218.280757-174.280907-174.2776776c-8.0273905 5.5991531-15.8029158 11.7278686-23.2716823 18.3764594l176.7252893 176.7285182z"/><path d="m239.106443 259.935357 176.728518 176.72206c3.645585-3.241955 7.216901-6.613071 10.717179-10.103662 3.49382-3.500278 6.861708-7.078053 10.11335-10.71718l-176.731748-176.728518z"/><path d="m280.762334 218.280757 174.280907 174.280907c5.834873-8.359981 11.094977-17.000889 15.793228-25.858142l-169.246836-169.250064z"/><path d="m322.414996 176.628095-161.367981-161.374439c-9.77753 3.6875622-19.367775 8.004787-28.709384 12.9516743l169.250065 169.2500647z"/><path d="m322.414996 176.628095 161.37121 161.374439c3.949114-10.481459 7.171695-21.169577 9.670971-31.990086l-150.214881-150.211653z"/><path d="m364.067658 134.973819-134.980277-134.973819c-12.108895.98162777-24.166126 2.84478311-36.058675 5.58946603l150.211652 150.21165197z"/><path d="m405.723549 93.319542-83.383467-83.38023791c-16.845895-5.10188118-34.121252-8.39550068-51.519313-9.87117137l114.07548 114.07870928z"/></g></svg>