<svg version="1" xmlns="http://www.w3.org/2000/svg" width="21.333" height="21.333" viewBox="0 0 16.000000 16.000000"><path d="M0 8v8h16V0H0v8zm15.98 0v7.98H.02V.02h15.96V8z"/><path d="M.2 8v7.8h15.6V.2H.2V8zm15.58 0v7.78H.22V.22h15.56V8z"/><path d="M9.09 2.674a3.09 3.09 0 0 0-.912.248 3.49 3.49 0 0 1-.348.128 4.954 4.954 0 0 0-1.894 1.086c-.126.12-.136.124-.144.08a27.362 27.362 0 0 1-.082-.684 14.853 14.853 0 0 0-.078-.646 2.44 2.44 0 0 0-.282.054c-.152.032-.28.058-.282.054a.616.616 0 0 1-.022-.064l-.016-.062-1.514.36L2 3.588v.592h.15c.134 0 .15.004.15.038s.022.038.276.05c.428.02.528.038.634.114.234.168.338.498.394 1.258.038.508.038 5.442 0 5.736-.044.348-.134.606-.252.728-.08.084-.366.144-.786.17l-.226.012v.19l-.15.014-.15.014v.636h4.98v-.18h.38v-.674l-.254-.024c-.716-.068-.97-.188-1.126-.532-.122-.266-.152-.558-.172-1.61-.038-2.094.164-3.426.682-4.49.374-.768.852-1.266 1.31-1.362.216-.044.318-.02.692.17.174.088.39.186.478.216.15.05.182.054.49.054.286 0 .348-.006.46-.044.07-.024.136-.036.144-.028.052.054.19.362.264.586.132.404.2.806.256 1.488.038.462.036 4.196 0 4.55-.048.448-.108.65-.244.832-.184.244-.498.358-1.104.4l-.196.014v.634H14v-.32c0-.292-.004-.32-.036-.32a7.81 7.81 0 0 1-.694-.092c-.48-.098-.676-.35-.77-.988-.016-.098-.028-1.026-.04-2.67-.016-2.488-.024-2.81-.092-3.34-.076-.61-.218-1.048-.46-1.412a2.393 2.393 0 0 0-.562-.544 3.982 3.982 0 0 0-.814-.384 1.416 1.416 0 0 1-.366-.17c-.27-.18-.666-.264-1.076-.226z"/></svg>