<svg height="522.93" preserveAspectRatio="xMinYMid" viewBox="0 0 1230.47 522.93" width="1230.47" xmlns="http://www.w3.org/2000/svg"><path d="m399.56 416.12h-55v96.73h-133.33v-96.73h-199.23v-99.12l207.78-303.85h124.75v302.14h55zm-188.33-100.83v-58.1q0-16.41 1.2-44.26t1.88-29.23h-3.76a361.19 361.19 0 0 1 -26.32 49.22l-55.37 82.37zm584.47-51.61q0 132.63-44.43 194.32t-136 61.69q-89.55 0-135-64.43t-45.5-191.58q0-133.29 44.43-195.5t136.03-62.18q89.22 0 134.84 64.77t45.63 192.91zm-226.61 0q0 84.78 10.6 116.56t35.54 31.76q25.29 0 35.72-32.81t10.43-115.53q0-83.05-10.6-116.38t-35.55-33.28q-24.94 0-35.54 32.13t-10.6 117.55zm650.78 152.44h-55v96.73h-133.3v-96.73h-199.29v-99.12l207.81-303.85h124.75v302.14h55zm-188.33-100.83v-58.1q0-16.41 1.2-44.26t1.88-29.23h-3.76a360.09 360.09 0 0 1 -26.32 49.22l-55.37 82.37z" fill="#54595b" opacity=".2"/></svg>